<svg width="192" height="64" viewBox="0 0 192 64" fill="#171921" xmlns="http://www.w3.org/2000/svg">
<path d="M19.8139 23.9354C19.2997 23.1188 18.6725 22.4342 17.9324 21.8815C17.1924 21.3288 16.3771 20.908 15.4865 20.6191C14.5959 20.3311 13.6614 20.1857 12.6831 20.1857C10.9019 20.1857 9.37163 20.5249 8.09222 21.2032C6.8128 21.8815 5.76454 22.7797 4.95012 23.8977C4.13481 25.0156 3.53273 26.2781 3.14299 27.685C2.75415 29.0928 2.56062 30.5365 2.56062 32.0187C2.56062 33.4768 2.75504 34.9151 3.14299 36.3336C3.53273 37.754 4.13391 39.0227 4.95012 40.1398C5.76454 41.2578 6.8128 42.1559 8.09222 42.8343C9.37163 43.5126 10.9019 43.8518 12.6831 43.8518C13.9365 43.8518 15.0663 43.6256 16.0698 43.1734C17.0723 42.7212 17.9378 42.1057 18.6653 41.3269C19.3928 40.5481 19.9833 39.6373 20.4348 38.5947C20.8864 37.5521 21.174 36.4279 21.3003 35.2219H23.8582C23.6826 36.8801 23.2938 38.3749 22.6917 39.7064C22.0896 41.038 21.312 42.1685 20.3587 43.0981C19.4054 44.0276 18.2827 44.7436 16.9899 45.2461C15.6979 45.7486 14.2617 45.9998 12.6813 45.9998C10.574 45.9998 8.72386 45.6167 7.13086 44.8504C5.53786 44.0841 4.21455 43.0604 3.16091 41.7791C2.10727 40.4978 1.31705 39.0155 0.790228 37.3323C0.263409 35.649 0 33.8779 0 32.0187C0 30.1596 0.263409 28.3893 0.790228 26.7052C1.31794 25.0228 2.10817 23.5334 3.16091 22.2395C4.21455 20.9457 5.53697 19.9165 7.13086 19.1494C8.72386 18.3831 10.5749 18 12.6813 18C13.9607 18 15.2078 18.1884 16.4254 18.5653C17.6421 18.9421 18.746 19.5011 19.7369 20.2422C20.7269 20.9834 21.5548 21.895 22.2204 22.9744C22.8843 24.0556 23.3045 25.2983 23.4802 26.7052H20.9222C20.6982 25.6751 20.3273 24.7519 19.8139 23.9354Z" fill="black"/>
<path d="M28.0208 26.0267V30.5866H28.0961C28.6982 29.0038 29.6327 27.7854 30.8995 26.9312C32.1664 26.077 33.6779 25.6876 35.4348 25.763V28.1371C34.3552 28.0868 33.3768 28.2313 32.4997 28.5705C31.6217 28.9096 30.8628 29.3933 30.2231 30.0213C29.5834 30.6494 29.087 31.3968 28.7367 32.2636C28.3846 33.1303 28.2099 34.0787 28.2099 35.1088V45.4721H25.8392V26.0267H28.0208Z" fill="black"/>
<path d="M50.0522 45.4722V41.9675H49.9769C49.3498 43.2739 48.4404 44.2726 47.2488 44.9635C46.0572 45.6543 44.7329 45.9998 43.2788 45.9998C42.0496 45.9998 41.0022 45.8302 40.1367 45.491C39.2712 45.1519 38.5688 44.6683 38.0286 44.0402C37.4883 43.413 37.0941 42.6458 36.8441 41.7414C36.5932 40.837 36.4669 39.8069 36.4669 38.6513V26.0269H38.8376V38.6889C38.8878 40.4476 39.2954 41.7791 40.0606 42.6835C40.8257 43.588 42.149 44.0402 44.0305 44.0402C45.0582 44.0402 45.9371 43.8203 46.6646 43.3807C47.3921 42.941 47.9933 42.3569 48.4709 41.6284C48.9466 40.8998 49.2987 40.0644 49.5245 39.1223C49.7503 38.1802 49.8632 37.2192 49.8632 36.2394V26.0269H52.2338V45.4722H50.0522Z" fill="black"/>
<path d="M57.6311 26.0271V29.381H57.7063C58.1579 28.2002 58.9598 27.2518 60.1147 26.5358C61.2677 25.8198 62.5346 25.4618 63.9144 25.4618C65.27 25.4618 66.4042 25.6377 67.3208 25.9894C68.2355 26.3411 68.9693 26.8373 69.5221 27.4779C70.0731 28.1186 70.4629 28.9046 70.6887 29.8332C70.9144 30.7637 71.0273 31.8063 71.0273 32.9611V45.4724H68.6566V33.3379C68.6566 32.5088 68.5814 31.7363 68.4309 31.0203C68.2803 30.3043 68.0169 29.6825 67.6406 29.1549C67.2643 28.6273 66.7563 28.2128 66.1166 27.9113C65.4769 27.6098 64.6804 27.4591 63.7271 27.4591C62.7738 27.4591 61.9272 27.6287 61.1871 27.9678C60.4471 28.307 59.8199 28.7718 59.3056 29.3622C58.7913 29.9526 58.39 30.656 58.1015 31.4725C57.813 32.289 57.6553 33.1746 57.6311 34.1293V45.4724H55.2604V26.0271H57.6311Z" fill="black"/>
<path d="M85.9735 28.7027C85.0955 27.8736 83.8663 27.4591 82.2858 27.4591C81.1569 27.4591 80.166 27.6987 79.314 28.1751C78.461 28.6524 77.7523 29.2805 77.1879 30.0593C76.6234 30.8391 76.1969 31.7237 75.9076 32.7161C75.6191 33.7085 75.4757 34.7197 75.4757 35.7497C75.4757 36.7798 75.6191 37.791 75.9076 38.7834C76.196 39.7757 76.6234 40.6622 77.1879 41.4401C77.7523 42.219 78.461 42.847 79.314 43.3244C80.166 43.8017 81.1578 44.0404 82.2858 44.0404C83.0133 44.0404 83.7032 43.9031 84.3564 43.6259C85.0086 43.3495 85.5847 42.9664 86.0873 42.4765C86.5891 41.9866 87.0021 41.4025 87.3291 40.7241C87.6561 40.0458 87.8559 39.3047 87.9312 38.5007H90.3019C89.9758 40.8623 89.1103 42.7026 87.7054 44.0215C86.3006 45.3405 84.4943 46 82.2867 46C80.8066 46 79.4958 45.7299 78.3544 45.1898C77.2129 44.6496 76.2525 43.9148 75.4757 42.9852C74.698 42.0557 74.1085 40.9691 73.7062 39.7255C73.3048 38.4819 73.1041 37.1566 73.1041 35.7497C73.1041 34.3428 73.3048 33.0176 73.7062 31.774C74.1076 30.5304 74.6971 29.4438 75.4757 28.5143C76.2525 27.5847 77.212 26.8436 78.3544 26.2909C79.4949 25.7381 80.8057 25.4618 82.2867 25.4618C84.3689 25.4618 86.1312 26.0145 87.5737 27.1199C89.0153 28.2253 89.8745 29.896 90.1514 32.132H87.7807C87.4528 30.6749 86.8507 29.5317 85.9735 28.7027Z" fill="black"/>
<path d="M94.5908 18.5649V29.3805H94.6661C95.1176 28.1997 95.9195 27.2513 97.0744 26.5353C98.2275 25.8193 99.4943 25.4613 100.874 25.4613C102.23 25.4613 103.364 25.6371 104.281 25.9888C105.195 26.3406 105.929 26.8367 106.482 27.4774C107.033 28.118 107.423 28.904 107.648 29.8327C107.874 30.7631 107.987 31.8058 107.987 32.9605V45.4719H105.616V33.3374C105.616 32.5083 105.541 31.7358 105.391 31.0198C105.24 30.3037 104.977 29.6819 104.6 29.1544C104.224 28.6268 103.716 28.2122 103.076 27.9108C102.437 27.6093 101.64 27.4585 100.687 27.4585C99.7336 27.4585 98.8869 27.6281 98.1468 27.9673C97.4068 28.3065 96.7796 28.7712 96.2653 29.3616C95.7511 29.952 95.3497 30.6555 95.0612 31.472C94.7727 32.2885 94.615 33.1741 94.5908 34.1288V45.4719H92.2201V18.5649H94.5908Z" fill="black"/>
<path d="M111.516 18.5649H124.573C126.981 18.5649 128.913 19.1177 130.369 20.2231C131.823 21.3285 132.551 22.9992 132.551 25.2351C132.551 26.5918 132.219 27.7546 131.554 28.721C130.889 29.6882 129.942 30.4356 128.713 30.9632V31.0386C130.37 31.3912 131.623 32.1754 132.476 33.3939C133.328 34.6124 133.755 36.1395 133.755 37.9726C133.755 39.0278 133.567 40.0139 133.191 40.9309C132.815 41.8478 132.225 42.6392 131.422 43.305C130.62 43.9708 129.591 44.4983 128.337 44.8878C127.082 45.2772 125.591 45.4719 123.859 45.4719H111.517V18.5649H111.516ZM116.22 29.8327H123.896C125.024 29.8327 125.966 29.5124 126.718 28.8717C127.469 28.2311 127.847 27.3078 127.847 26.1019C127.847 24.7452 127.508 23.7906 126.831 23.2379C126.153 22.6851 125.175 22.4088 123.896 22.4088H116.22V29.8327ZM116.22 41.628H124.535C125.966 41.628 127.075 41.2575 127.866 40.5163C128.657 39.7752 129.051 38.7263 129.051 37.3696C129.051 36.0381 128.657 35.0143 127.866 34.2983C127.075 33.5823 125.966 33.2243 124.535 33.2243H116.22V41.628Z" fill="black"/>
<path d="M152.468 41.1387C152.468 41.6662 152.537 42.0431 152.674 42.2692C152.812 42.4953 153.082 42.6084 153.483 42.6084C153.609 42.6084 153.759 42.6084 153.935 42.6084C154.111 42.6084 154.311 42.5832 154.537 42.533V45.5101C154.386 45.5603 154.192 45.6169 153.955 45.6797C153.715 45.7425 153.471 45.799 153.221 45.8493C152.97 45.8995 152.718 45.9372 152.468 45.9623C152.217 45.9874 152.003 46 151.829 46C150.95 46 150.223 45.8241 149.645 45.4724C149.067 45.1207 148.692 44.5052 148.516 43.6259C147.663 44.4549 146.616 45.0579 145.374 45.4347C144.132 45.8116 142.934 46 141.78 46C140.902 46 140.061 45.8807 139.259 45.642C138.456 45.4033 137.747 45.0516 137.133 44.5868C136.518 44.122 136.029 43.5316 135.666 42.8156C135.302 42.0996 135.12 41.2643 135.12 40.3096C135.12 39.1037 135.339 38.1239 135.778 37.3702C136.217 36.6165 136.794 36.0261 137.509 35.599C138.224 35.1719 139.027 34.8641 139.918 34.6757C140.807 34.4873 141.705 34.3428 142.608 34.2423C143.385 34.0916 144.125 33.9848 144.828 33.922C145.531 33.8601 146.152 33.7524 146.691 33.6017C147.231 33.451 147.657 33.2186 147.971 32.9045C148.285 32.5905 148.441 32.1194 148.441 31.4914C148.441 30.9386 148.31 30.4864 148.047 30.1347C147.782 29.783 147.456 29.5129 147.067 29.3245C146.678 29.1361 146.246 29.0104 145.77 28.9476C145.293 28.8857 144.841 28.8534 144.415 28.8534C143.21 28.8534 142.219 29.1047 141.443 29.6071C140.665 30.1105 140.226 30.8884 140.125 31.9436H135.835C135.91 30.6883 136.211 29.6448 136.739 28.8157C137.266 27.9867 137.936 27.3209 138.752 26.8184C139.567 26.316 140.488 25.9643 141.518 25.7633C142.546 25.5623 143.599 25.4618 144.678 25.4618C145.631 25.4618 146.572 25.5623 147.5 25.7633C148.427 25.9643 149.263 26.2909 150.003 26.7431C150.742 27.1953 151.338 27.7794 151.79 28.4954C152.242 29.2114 152.467 30.0845 152.467 31.1145V41.1387H152.468ZM148.178 35.7121C147.524 36.14 146.723 36.3967 145.769 36.4846C144.816 36.5734 143.862 36.7053 142.909 36.8803C142.458 36.9556 142.019 37.0633 141.592 37.2006C141.165 37.3388 140.79 37.5272 140.463 37.7659C140.135 38.0045 139.88 38.3186 139.692 38.708C139.504 39.0983 139.41 39.5685 139.41 40.1212C139.41 40.5985 139.547 41.0005 139.824 41.3271C140.1 41.6537 140.432 41.9112 140.821 42.0996C141.21 42.288 141.635 42.4199 142.1 42.4953C142.564 42.5707 142.985 42.6084 143.361 42.6084C143.837 42.6084 144.351 42.5456 144.904 42.4199C145.457 42.2943 145.976 42.0808 146.465 41.7793C146.955 41.4778 147.362 41.0956 147.688 40.6299C148.014 40.1651 148.178 39.5936 148.178 38.9153V35.7121Z" fill="black"/>
<path d="M159.26 39.2167C159.386 40.4729 159.863 41.3522 160.69 41.8547C161.519 42.358 162.509 42.6084 163.663 42.6084C164.064 42.6084 164.522 42.577 165.037 42.5142C165.55 42.4513 166.034 42.332 166.485 42.1561C166.937 41.9803 167.306 41.7228 167.595 41.3836C167.883 41.0444 168.015 40.5985 167.99 40.0458C167.965 39.4931 167.764 39.0409 167.388 38.6891C167.011 38.3374 166.527 38.0548 165.939 37.8412C165.349 37.6277 164.678 37.4456 163.926 37.2948C163.173 37.1441 162.408 36.9808 161.63 36.8049C160.827 36.6299 160.055 36.4155 159.316 36.1643C158.576 35.9139 157.911 35.5739 157.321 35.1468C156.73 34.7197 156.261 34.1733 155.91 33.5075C155.558 32.8417 155.383 32.0189 155.383 31.0391C155.383 29.984 155.64 29.0984 156.154 28.3824C156.668 27.6664 157.321 27.0885 158.111 26.6489C158.902 26.2092 159.779 25.9014 160.745 25.7256C161.71 25.5497 162.632 25.4618 163.511 25.4618C164.514 25.4618 165.473 25.5686 166.39 25.7821C167.304 25.9957 168.133 26.3411 168.873 26.8184C169.612 27.2958 170.228 27.9176 170.717 28.6838C171.206 29.4501 171.513 30.3734 171.639 31.4537H167.161C166.959 30.4236 166.489 29.7336 165.75 29.381C165.01 29.0293 164.163 28.8534 163.21 28.8534C162.909 28.8534 162.551 28.8785 162.137 28.9288C161.723 28.9799 161.335 29.0741 160.971 29.2114C160.607 29.3496 160.3 29.5506 160.049 29.8144C159.798 30.0782 159.673 30.4236 159.673 30.8507C159.673 31.3783 159.855 31.8054 160.22 32.132C160.585 32.4586 161.062 32.7296 161.654 32.9422C162.246 33.1558 162.919 33.3379 163.674 33.4887C164.428 33.6394 165.208 33.8036 166.013 33.9786C166.793 34.1544 167.561 34.3689 168.315 34.6192C169.07 34.8704 169.743 35.2096 170.334 35.6367C170.926 36.0647 171.403 36.6039 171.769 37.2571C172.134 37.9103 172.316 38.7143 172.316 39.669C172.316 40.8246 172.052 41.8044 171.524 42.6084C170.996 43.4123 170.311 44.0655 169.468 44.568C168.627 45.0704 167.69 45.4347 166.659 45.6608C165.628 45.8869 164.61 46 163.605 46C162.372 46 161.234 45.8618 160.191 45.5855C159.148 45.3091 158.243 44.8883 157.476 44.323C156.71 43.7578 156.106 43.0543 155.665 42.2127C155.226 41.371 154.992 40.3724 154.968 39.2167H159.26V39.2167Z" fill="black"/>
<path d="M177.616 36.8426C177.616 37.5963 177.722 38.3258 177.936 39.0283C178.148 39.7318 178.469 40.3473 178.894 40.8749C179.322 41.4025 179.86 41.8233 180.513 42.1373C181.165 42.4513 181.943 42.6084 182.846 42.6084C184.101 42.6084 185.11 42.3383 185.876 41.7981C186.641 41.258 187.211 40.4487 187.588 39.3675H191.652C191.426 40.4226 191.036 41.3648 190.485 42.1938C189.933 43.0229 189.268 43.7201 188.491 44.2853C187.712 44.8506 186.84 45.2777 185.875 45.5666C184.909 45.8555 183.9 46 182.845 46C181.315 46 179.96 45.7488 178.781 45.2463C177.602 44.7438 176.605 44.0404 175.79 43.136C174.974 42.2315 174.36 41.1521 173.946 39.8951C173.532 38.6389 173.325 37.2571 173.325 35.7497C173.325 34.368 173.545 33.0553 173.984 31.8117C174.422 30.5681 175.049 29.4752 175.865 28.5331C176.68 27.591 177.665 26.8436 178.819 26.2909C179.973 25.7381 181.277 25.4618 182.733 25.4618C184.263 25.4618 185.636 25.7821 186.854 26.4228C188.07 27.0634 189.079 27.9113 189.883 28.9665C190.686 30.0216 191.269 31.2338 191.633 32.6031C191.996 33.9723 192.09 35.3854 191.914 36.8426H177.616ZM187.625 34.0162C187.575 33.3379 187.431 32.6847 187.193 32.0566C186.954 31.4294 186.629 30.8821 186.215 30.4173C185.8 29.9526 185.299 29.5757 184.709 29.2868C184.119 28.9988 183.461 28.8534 182.733 28.8534C181.981 28.8534 181.297 28.9853 180.683 29.2491C180.068 29.5129 179.541 29.8772 179.102 30.342C178.663 30.8067 178.312 31.3532 178.048 31.9813C177.785 32.6093 177.64 33.2886 177.616 34.0162H187.625V34.0162Z" fill="black"/>
</svg>
