<svg width="192" height="64" viewBox="0 0 192 64" fill="#171921" xmlns="http://www.w3.org/2000/svg">
<path d="M8.56045 31.4719C8.68961 31.6981 8.68961 31.9784 8.56045 32.2038C7.65258 34.0803 6.78292 35.9568 5.8972 37.8527C5.84218 37.9844 5.78563 38.1346 5.73061 38.2841C7.00683 38.2841 8.24865 38.3034 9.47214 38.2841C10.2058 38.2562 10.9234 38.0494 11.5638 37.6854C14.1384 36.2194 15.4398 33.199 14.7482 30.2901C14.2484 28.1511 12.1377 25.5985 9.249 25.4474C8.50773 25.4103 7.74734 25.4296 7.00759 25.4296C6.81807 25.449 6.64001 25.3321 6.58193 25.1485C6.15321 24.2292 5.70845 23.3084 5.28202 22.3899C5.23388 22.2675 5.19719 22.1428 5.17044 22.0143H9.00445C9.50501 22.0708 10.0056 22.1088 10.5061 22.2032C14.7016 22.994 17.925 26.4194 18.5073 30.7045C19.0018 35.0631 16.6366 39.2398 12.6742 41.0071C11.6784 41.433 10.6078 41.6506 9.5264 41.6429H0.467537C0.325395 41.6475 0.183248 41.6607 0.0418701 41.6824V41.5298C0.0968928 41.4717 0.14733 41.4098 0.191653 41.3416C1.65434 38.2647 3.09946 35.1669 4.56214 32.0722C4.59424 32.0001 4.60647 31.9211 4.59806 31.8445H8.65216C8.64528 31.7136 8.61394 31.5858 8.55969 31.4688" fill="black"/>
<path d="M35.3741 41.9622C34.9118 41.925 34.4487 41.8693 33.9672 41.8313C31.9688 41.6331 30.0293 41.0329 28.2624 40.0671C28.2258 40.0493 28.1875 40.0113 28.1325 39.9742C28.5773 39.0355 29.0213 38.1163 29.4087 37.2721C30.7048 37.6857 31.9268 38.1163 33.1671 38.4539C34.5931 38.8938 36.1108 38.9325 37.5567 38.567C38.0763 38.4113 38.5563 38.1403 38.9636 37.777C39.6819 37.1342 39.7499 36.0198 39.1134 35.2926C39.0239 35.1896 38.9231 35.0982 38.813 35.0192C38.1107 34.5143 37.3106 34.1619 36.4646 33.9861C35.021 33.5733 33.5584 33.217 32.1324 32.7462C31.0197 32.4224 30.0361 31.7541 29.3186 30.8333C27.8658 28.7438 28.1677 25.886 30.0216 24.1536C31.1939 23.1173 32.6726 22.5032 34.2255 22.4087C36.9996 22.1802 39.7859 22.6782 42.3169 23.8539C42.3742 23.874 42.4247 23.905 42.4667 23.9483C42.4896 23.9692 42.5087 23.9956 42.5225 24.0242C42.041 24.9621 41.5405 25.8814 41.0957 26.7627C40.0212 26.4444 39.0033 26.0881 37.9655 25.8248C36.7084 25.4539 35.3817 25.3896 34.0964 25.6366C33.6439 25.7381 33.2152 25.9294 32.8362 26.2005C32.0139 26.7464 31.7854 27.8648 32.3242 28.6988C32.4862 28.9474 32.7063 29.1534 32.9661 29.2959C33.7785 29.7746 34.6588 30.1223 35.5774 30.3283C36.8536 30.666 38.1145 30.9665 39.3732 31.3413C39.8523 31.5109 40.3116 31.7301 40.7442 31.998C43.0888 33.3425 43.9133 36.3613 42.5859 38.7366C42.4736 38.9379 42.3467 39.1331 42.2061 39.3174C41.234 40.6139 39.7966 41.4696 38.207 41.7004C37.4948 41.8189 36.778 41.9018 36.0573 41.9429C35.9648 41.9622 35.8548 41.9816 35.7432 42.0002C35.6248 41.9645 35.4987 41.9521 35.3741 41.9622Z" fill="black"/>
<path d="M57.6873 35.75C57.7057 35.7121 57.7057 35.6935 57.724 35.7121C57.8898 35.6192 58.0572 35.5239 58.2238 35.4488C59.3395 34.8888 60.2298 33.9541 60.7418 32.8032C61.5213 31.0483 61.6841 29.075 61.2042 27.2124C60.8007 25.4087 59.5474 23.921 57.8532 23.234C56.8818 22.8058 55.8357 22.5758 54.7757 22.5579C51.9054 22.5208 49.0167 22.5386 46.144 22.5386C46.0982 22.5424 46.0538 22.5548 46.0141 22.5757V41.6615H49.6074V36.4997H50.0697C51.2703 36.4997 52.4579 36.5191 53.6623 36.4811C53.9053 36.4571 54.1422 36.5733 54.2729 36.7832L57.6048 41.3989C57.7248 41.591 57.9388 41.6994 58.1611 41.6808C59.3839 41.6622 60.6051 41.6808 61.827 41.6808C61.9203 41.6808 62.0127 41.6622 62.1793 41.6413C60.6501 39.6339 59.1691 37.6839 57.6873 35.75ZM54.5212 33.3097C54.0329 33.4019 53.5369 33.4452 53.0394 33.4422C51.9138 33.4615 50.7797 33.4422 49.6135 33.4422V25.71C49.7052 25.71 49.7809 25.6906 49.8542 25.6906C51.2252 25.6906 52.5763 25.6542 53.9465 25.6906C55.1807 25.6263 56.3622 26.2072 57.076 27.2302C58.2758 29.0332 57.8058 31.4812 56.0267 32.6964C55.5728 33.0061 55.06 33.216 54.5212 33.3097Z" fill="black"/>
<path d="M151.831 35.7316C151.868 35.6952 151.868 35.6767 151.888 35.6767C151.979 35.6379 152.073 35.5822 152.165 35.545C153.399 34.9773 154.38 33.9674 154.924 32.7113C155.755 30.8154 155.852 28.6725 155.201 26.7061C154.747 25.2447 153.713 24.0412 152.351 23.3837C151.275 22.8369 150.09 22.5473 148.887 22.5395C146.035 22.5031 143.182 22.521 140.312 22.521C140.276 22.521 140.22 22.5395 140.163 22.5395V41.6423H143.756V36.4829H144.181C145.38 36.4829 146.606 36.5015 147.811 36.4643C148.069 36.4418 148.317 36.565 148.457 36.7841L151.791 41.3999C151.903 41.5788 152.1 41.6857 152.312 41.6818C153.437 41.6632 154.588 41.6818 155.717 41.6818H156.367C154.813 39.6341 153.331 37.7034 151.831 35.7316ZM150.631 32.4286C149.992 32.997 149.183 33.3246 148.334 33.3665C146.832 33.4222 145.332 33.3858 143.799 33.3858V25.6916H145.038C146.038 25.6916 147.039 25.6722 148.019 25.6916C148.456 25.6893 148.895 25.7528 149.316 25.8798C150.792 26.236 151.83 27.5704 151.833 29.1069C151.984 30.3469 151.532 31.5837 150.628 32.4286H150.631Z" fill="black"/>
<path d="M134.369 25.2238C131.152 22.1476 126.369 21.4707 122.444 23.5347C117.792 25.9037 115.915 31.6448 118.252 36.3612C118.28 36.4147 118.306 36.4681 118.332 36.5208C119.992 39.7913 123.316 41.8498 126.944 41.8514C129.822 41.9164 132.598 40.7834 134.63 38.7179C138.224 34.9138 138.106 28.8815 134.369 25.2238ZM127.258 38.4724C123.822 38.5119 121.001 35.72 120.963 32.2365C120.961 32.1822 120.961 32.1273 120.963 32.0738C120.944 28.5965 123.713 25.7651 127.144 25.7465C127.199 25.7465 127.257 25.7465 127.314 25.7481C130.782 25.7636 133.582 28.6244 133.564 32.1373C133.548 35.6518 130.726 38.4879 127.258 38.4724Z" fill="black"/>
<path d="M98.6853 26.8371C98.2238 25.2603 97.1088 23.9661 95.6308 23.2908C94.5976 22.7983 93.4742 22.5419 92.3348 22.5388C90.0743 22.5024 87.8336 22.5202 85.5785 22.5202H84.0936V41.6617H87.6854V36.5007C88.8126 36.5007 89.8901 36.5387 90.9638 36.4822C91.9901 36.4481 93.0119 36.3288 94.0199 36.1251C96.1627 35.7596 97.9303 34.2207 98.6104 32.1289C99.2096 30.4205 99.2356 28.561 98.6853 26.8371ZM95.1104 30.7589C94.7673 32.1762 93.5476 33.1977 92.1101 33.2751C90.6642 33.4424 89.1809 33.4068 87.7022 33.4618C87.7022 30.8154 87.7022 28.2644 87.6839 25.6932H88.5229C89.7449 25.711 90.986 25.6552 92.2079 25.7861C94.029 25.9 95.413 27.4868 95.3014 29.3324C95.3014 29.3393 95.3014 29.3455 95.2999 29.3517C95.3022 29.8272 95.2388 30.3012 95.1104 30.7589Z" fill="black"/>
<path d="M77.0385 22.5209H80.5569C80.5569 22.5766 80.576 22.6146 80.576 22.6727C80.576 26.5016 80.6119 30.3297 80.5569 34.1594C80.5011 38.1572 78.1496 40.9352 74.2606 41.6662C71.9114 42.2014 69.4492 41.7925 67.3904 40.5247C65.5005 39.3196 64.3015 37.2658 64.1693 35.0067C64.1227 34.4707 64.1043 33.9325 64.1135 33.3927V22.5387H67.6502V22.97C67.6502 26.4419 67.6319 29.9131 67.6686 33.3857C67.6709 34.1044 67.7771 34.8192 67.9834 35.5054C68.5398 37.4013 69.8917 38.3763 72.0941 38.5653C74.2721 38.8092 76.2926 37.3811 76.8169 35.2243C76.9621 34.6156 77.0423 33.9921 77.0576 33.3672C77.0759 29.9138 77.0576 26.445 77.0576 22.9902C77.0415 22.8337 77.0354 22.6773 77.0385 22.5209Z" fill="black"/>
<path d="M116.241 22.5398V25.674H110.167V41.6426H106.576V25.6926H100.539V22.5398H116.241V22.5398Z" fill="black"/>
<path d="M25.3562 41.6627H21.7629V22.5398H25.3371C25.3562 28.902 25.3562 35.2641 25.3562 41.6627Z" fill="black"/>
<path d="M191.998 41.3795C191.836 41.3578 191.677 41.3455 191.515 41.3416H160.702C161.202 40.348 161.682 39.4279 162.148 38.5078C162.703 37.4383 163.221 36.3688 163.798 35.3186C163.9 35.1575 163.9 34.9523 163.798 34.7912C162.818 32.9147 161.872 31.0382 160.89 29.1431C160.835 29.0494 160.798 28.9371 160.706 28.7683H191.537C191.692 28.7714 191.846 28.7644 192 28.7489L191.998 41.3795ZM166.407 32.1844V37.8519C167.073 37.8519 167.703 37.8147 168.333 37.8519C169.532 37.8983 170.602 37.0944 170.908 35.918C171.383 34.4706 170.608 32.9046 169.18 32.4214C169.102 32.3943 169.025 32.3726 168.942 32.3532C168.102 32.2471 167.255 32.1906 166.407 32.1844ZM171.85 37.8325C172.481 37.8898 172.481 37.8898 172.703 37.3454C172.776 37.2137 172.841 37.0751 172.889 36.9326C172.944 36.6522 173.129 36.6143 173.352 36.6321H175.37C176.055 36.6321 176.055 36.6321 176.335 37.3066C176.558 37.8898 176.592 37.8898 177.241 37.8325C176.407 36.0319 175.59 34.2305 174.76 32.4485C174.707 32.3463 174.612 32.2781 174.5 32.2588C174.409 32.2588 174.316 32.3919 174.276 32.4872C173.741 33.6288 173.221 34.7773 172.682 35.9405C172.424 36.557 172.145 37.1781 171.85 37.8341V37.8325ZM185 32.2804C185.022 32.3594 185.053 32.4353 185.091 32.5081C185.574 33.2957 186.054 34.1058 186.554 34.8733C186.978 35.3992 187.182 36.0691 187.125 36.7444C187.096 37.1068 187.096 37.4716 187.125 37.8341H187.772V36.0544C187.764 35.9057 187.795 35.7546 187.865 35.6222C188.143 35.1351 188.456 34.665 188.754 34.1779C189.142 33.5583 189.513 32.9194 189.901 32.2448C189.74 32.234 189.581 32.234 189.422 32.2448C189.299 32.2518 189.185 32.306 189.104 32.3943C188.881 32.7335 188.679 33.0712 188.476 33.4297C188.143 33.9718 187.81 34.5163 187.457 35.1173C187.389 35.0468 187.327 34.9701 187.27 34.8896C186.809 34.1577 186.328 33.4429 185.922 32.6948C185.72 32.2417 185.44 32.1844 184.997 32.2781L185 32.2804ZM184.962 37.3276H181.923V32.2773C181.278 32.1844 181.278 32.1844 181.278 32.7846V37.8519H184.98C184.965 37.6776 184.958 37.501 184.96 37.3268H184.962V37.3276ZM178.702 32.2611V37.8527H179.316V32.2603L178.702 32.2611Z" fill="black"/>
<path d="M167.072 37.2521V32.9361C167.652 32.895 168.234 32.9012 168.812 32.9546C170.313 33.1986 170.665 34.9628 170.183 36.0896C169.904 36.813 169.207 37.2769 168.443 37.2521C167.98 37.2707 167.535 37.2521 167.072 37.2521Z" fill="black"/>
<path d="M175.774 36.0321H173.312C173.719 35.0942 174.109 34.2106 174.535 33.1984C174.98 34.2114 175.369 35.095 175.774 36.0321Z" fill="black"/>
<path d="M4.54077 31.5846C4.57669 31.6597 4.59579 31.7434 4.59656 31.8286C4.57822 31.7527 4.55988 31.6589 4.54077 31.5846Z" fill="black"/>
<path d="M8.54138 31.4721C8.59563 31.5844 8.62696 31.7052 8.63383 31.8292H4.55987C4.56369 31.7432 4.54382 31.6588 4.50408 31.5852C3.43038 29.2951 2.3559 27.0058 1.26385 24.7135C0.855768 23.8538 0.430104 23.0089 0.00520608 22.1639C-0.0314757 21.9363 0.134367 22.0121 0.230657 22.0121H4.06007C4.08071 22.054 4.0937 22.0989 4.09676 22.1453C5.59765 25.261 7.05958 28.3751 8.54138 31.4721Z" fill="black"/>
</svg>
