<svg width="192" height="64" viewBox="0 0 192 64" fill="#171921" xmlns="http://www.w3.org/2000/svg">
<path d="M159.359 49.3333V52.7617H147.604L147.498 52.7693C147.126 52.825 146.941 53.1876 146.941 53.8674L146.946 54.0558C146.983 54.6541 147.202 54.9529 147.605 54.9529H156.16L156.439 54.9624C157.444 55.0321 158.286 55.4849 158.968 56.3195L159.147 56.562C159.716 57.385 160 58.3557 160 59.4747L159.991 59.8067C159.935 60.8983 159.594 61.8409 158.968 62.6352L158.778 62.8529C158.067 63.6167 157.195 64 156.16 64H144.404V60.5717H156.154L156.269 60.5627C156.632 60.5026 156.815 60.1417 156.815 59.4747L156.809 59.2843C156.773 58.6798 156.554 58.3795 156.154 58.3795H147.605L147.327 58.37C146.321 58.2999 145.479 57.8448 144.799 57.0085L144.615 56.7697C144.031 55.9584 143.741 54.9935 143.741 53.8674L143.75 53.5351C143.809 52.4417 144.166 51.4879 144.822 50.6737L145.008 50.459C145.705 49.7063 146.57 49.3333 147.605 49.3333H159.359ZM141.422 49.3333V52.7617H129.67L129.564 52.7693C129.193 52.825 129.007 53.1876 129.007 53.8674L129.013 54.0558C129.049 54.6541 129.269 54.9529 129.67 54.9529H138.223L138.502 54.9624C139.509 55.0321 140.35 55.4849 141.032 56.3195L141.211 56.562C141.779 57.385 142.066 58.3557 142.066 59.4747L142.058 59.8067C142 60.8983 141.657 61.8409 141.032 62.6352L140.843 62.8529C140.134 63.6167 139.261 64 138.225 64H126.468V60.5717H138.219L138.335 60.5627C138.7 60.5026 138.88 60.1417 138.88 59.4747L138.874 59.2843C138.838 58.6798 138.622 58.3795 138.219 58.3795H129.67L129.392 58.37C128.386 58.2999 127.544 57.8448 126.864 57.0085L126.68 56.7697C126.096 55.9584 125.808 54.9935 125.808 53.8674L125.817 53.5351C125.876 52.4417 126.229 51.4879 126.888 50.6737L127.073 50.459C127.768 49.7063 128.635 49.3333 129.67 49.3333H141.422ZM123.767 49.3333V52.7617H112.415V54.9529H123.025V58.3795H112.415V60.5717H123.738V64H109.231V49.3333H123.767ZM95.8366 49.3333L104.019 59.1447L104.023 49.3333H107.203V64H104.023L95.8431 54.1291V64H92.6613V49.3333H95.8366ZM90.631 49.3333V64H87.4476V49.3333H90.631ZM85.1305 49.3333V52.7617H73.3738L73.2681 52.7693C72.8977 52.825 72.7128 53.1876 72.7128 53.8674L72.7182 54.0558C72.7546 54.6541 72.9732 54.9529 73.3762 54.9529H81.9323L82.2101 54.9624C83.2142 55.0321 84.0579 55.4849 84.7393 56.3195L84.9183 56.562C85.4865 57.385 85.7694 58.3557 85.7694 59.4747L85.761 59.8067C85.7043 60.8983 85.3646 61.8409 84.7393 62.6352L84.5494 62.8529C83.8386 63.6167 82.9656 64 81.9323 64H70.1732V60.5717H81.9266L82.0419 60.5627C82.4077 60.5026 82.5876 60.1417 82.5876 59.4747L82.5822 59.2843C82.5462 58.6798 82.3297 58.3795 81.9266 58.3795H73.3762L73.0976 58.37C72.0911 58.2999 71.2477 57.8448 70.5693 57.0085L70.3855 56.7697C69.8021 55.9584 69.5098 54.9935 69.5098 53.8674L69.5188 53.5351C69.5791 52.4417 69.9404 51.4879 70.5954 50.6737L70.7809 50.459C71.4763 49.7063 72.34 49.3333 73.3762 49.3333H85.1305ZM53.9241 49.3333V59.4616L53.9289 59.6398C53.964 60.2642 54.1922 60.5717 54.6128 60.5717H63.6L63.7067 60.564C64.0807 60.5081 64.2643 60.1437 64.2643 59.4616V49.3333H67.464V59.4616L67.4551 59.7942C67.3955 60.8893 67.0379 61.8485 66.3784 62.6579L66.1939 62.8721C65.5014 63.6234 64.637 64 63.6 64H54.6063L54.3238 63.9907C53.3047 63.9222 52.4701 63.4773 51.8156 62.6579L51.6287 62.4106C51.0357 61.5714 50.7447 60.5838 50.7447 59.4616V49.3333H53.9241ZM44.9719 49.3333L45.2667 49.342C46.3288 49.4056 47.1841 49.819 47.8318 50.587L48.0128 50.8196C48.5271 51.5328 48.7846 52.385 48.7846 53.3762L48.7763 53.6863C48.7102 54.9052 48.247 55.8681 47.3811 56.5647L47.5959 56.7177C48.5638 57.4559 49.0494 58.5344 49.0494 59.9545L49.0396 60.2795C48.9808 61.2396 48.6573 62.0665 48.069 62.7481L47.8877 62.9476C47.204 63.6476 46.3105 64 45.2115 64H32V49.3333H44.9719ZM45.2164 58.3795H35.1827V60.5717H45.2164L45.326 60.5641C45.7107 60.5086 45.9059 60.1472 45.9059 59.4747L45.9001 59.2848C45.8618 58.6819 45.6321 58.3795 45.2164 58.3795ZM44.9719 52.7617H35.1827V54.9915H44.9719L45.0813 54.9837C45.4651 54.9271 45.659 54.5591 45.659 53.8761L45.6541 53.6977C45.6189 53.0721 45.3903 52.7617 44.9719 52.7617ZM154.667 0L160 46.6667H154.256L141.333 0H154.667ZM138.667 6.66667L152.615 46.6667H144L129.333 21.3257L138.667 6.66667ZM113.333 0L118.667 10.6667L124 0H138.667L125.333 21.3257L138.667 42.6667H125.333L118.667 32L113.333 42.6667H98.6667L110.667 21.3257L98.6667 0H113.333ZM82.0513 0C94.7376 0 105.026 9.48913 105.026 21.6104C105.026 32.9038 94.7376 42.3896 82.0513 42.3896C69.3625 42.3896 59.0769 32.9038 59.0769 21.6104C59.0769 9.48913 69.3625 0 82.0513 0ZM59.3333 0L60 12H44V16H57.3333V28H44V41.3333H32V0H59.3333ZM82 9.33333C80.2327 9.33333 78.7866 10.7087 78.6738 12.4475L78.6667 12.6667V30C78.6667 31.841 80.1591 33.3333 82 33.3333C83.7673 33.3333 85.2134 31.958 85.3262 30.2192L85.3333 30V12.6667C85.3333 10.8257 83.841 9.33333 82 9.33333Z" fill="black"/>
<path d="M32 44V46.6667H141.333L140 44H32Z" fill="black"/>
</svg>
