<svg width="192" height="64" viewBox="0 0 192 64" fill="#171921" xmlns="http://www.w3.org/2000/svg">
<path d="M143.012 36.3531C143.012 38.6899 143.098 38.756 145.234 38.756H152.357C152.659 38.756 152.912 39.0062 152.912 39.3107V41.0951C152.912 41.4869 152.774 41.6286 152.357 41.6805C151.451 41.8221 149.62 42.0699 146.278 42.0699C141.599 42.0699 139.128 42.1006 139.128 36.3507V27.5205C139.128 21.7682 141.599 21.7989 146.278 21.7989C149.62 21.7989 151.449 22.0515 152.357 22.1884C152.774 22.245 152.912 22.3843 152.912 22.7761V24.5582C152.912 24.8651 152.657 25.12 152.357 25.12H145.234C143.098 25.12 143.012 25.1814 143.012 27.5182V30.0745H152.013C152.326 30.0745 152.571 30.3294 152.571 30.6315V32.6449C152.571 32.9494 152.326 33.202 152.013 33.202H143.012V36.3531V36.3531ZM184.6 42.0841C182.115 42.0841 179.596 41.6616 178.245 41.3524C177.969 41.2957 177.712 41.1022 177.712 40.7953V38.7866C177.712 38.4798 177.969 38.2556 178.245 38.2556H178.302C179.427 38.3948 182.063 38.7583 184.662 38.7583C187.162 38.7583 187.926 37.8708 187.926 36.2516C187.926 34.1579 182.893 32.999 180.433 31.9958C177.991 30.9903 177.12 29.0689 177.12 27.1145C177.12 24.0437 179.613 21.8107 184.838 21.8107C187.519 21.8107 189.976 22.3159 190.93 22.5472C191.213 22.6038 191.432 22.7974 191.432 23.0735V25.1389C191.432 25.415 191.241 25.6393 190.956 25.6393H190.901C189.046 25.4741 187.119 25.1365 184.677 25.1365C182.591 25.1365 181.03 25.8588 181.03 27.1145C181.03 28.0327 182.089 28.8801 183.337 29.3687C184.586 29.8549 186.225 30.4899 188.097 31.2381C190.461 32.1894 192 33.5749 192 36.2492C191.998 39.0699 190.228 42.0841 184.6 42.0841ZM169.649 28.113C169.649 26.0193 168.015 25.1271 165.197 25.1271C164.609 25.1271 162.052 25.1837 161.543 25.2357V31.2877C161.997 31.316 164.726 31.3727 165.197 31.3727C168.096 31.3727 169.649 30.818 169.649 28.3632V28.113ZM173.869 41.8504H170.432C170.125 41.8504 170.013 41.5695 169.873 41.291L165.82 34.5261H165.192C164.464 34.5261 162.193 34.4459 161.538 34.4128V41.291C161.538 41.5979 161.317 41.8504 161.008 41.8504H158.199C157.887 41.8504 157.635 41.5979 157.635 41.291V23.0027C157.635 22.441 157.968 22.2474 158.532 22.1624C159.995 21.9406 163.144 21.8013 165.189 21.8013C169.525 21.8013 173.521 23.3379 173.521 28.1106V28.3632C173.521 31.3184 172.028 32.9376 169.725 33.8251L174.145 41.2934C174.202 41.3784 174.202 41.4562 174.202 41.52C174.206 41.7088 174.092 41.8504 173.869 41.8504ZM135.679 25.2616H130.068V41.2934C130.068 41.6002 129.809 41.8528 129.498 41.8528H126.717C126.405 41.8528 126.153 41.6002 126.153 41.2934V25.2616H120.538C120.233 25.2616 119.979 25.0728 119.979 24.7636V22.559C119.979 22.2498 120.233 22.0279 120.538 22.0279H135.679C135.984 22.0279 136.238 22.2498 136.238 22.559V24.7636C136.238 25.0728 135.984 25.2616 135.679 25.2616ZM108.757 42.0723C104.235 42.0723 100.335 40.1203 100.335 34.1697V22.559C100.335 22.2498 100.592 22.0279 100.901 22.0279H103.679C103.993 22.0279 104.243 22.2498 104.243 22.559V34.1697C104.243 37.3539 105.724 38.8622 108.757 38.8622C111.799 38.8622 113.276 37.3539 113.276 34.1697V22.559C113.276 22.2498 113.531 22.0279 113.837 22.0279H116.62C116.934 22.0279 117.186 22.2498 117.186 22.559V34.1697C117.189 40.1203 113.288 42.0723 108.757 42.0723ZM86.2325 36.3531C86.2325 38.6899 86.3228 38.756 88.4492 38.756H95.5681C95.8797 38.756 96.1318 39.0062 96.1318 39.3107V41.0951C96.1318 41.4869 95.9891 41.6286 95.5681 41.6805C94.669 41.8221 92.8352 42.0699 89.491 42.0699C84.8244 42.0699 82.3483 42.1006 82.3483 36.3507V27.5205C82.3483 21.7682 84.8244 21.7989 89.491 21.7989C92.8352 21.7989 94.6666 22.0515 95.5681 22.1884C95.9915 22.245 96.1318 22.3843 96.1318 22.7761V24.5582C96.1318 24.8651 95.8773 25.12 95.5681 25.12H88.4492C86.3228 25.12 86.2325 25.1814 86.2325 27.5182V30.0745H95.2327C95.5419 30.0745 95.7964 30.3294 95.7964 30.6315V32.6449C95.7964 32.9494 95.5419 33.202 95.2327 33.202H86.2325V36.3531ZM74.1782 28.113C74.1782 26.0193 72.5417 25.1271 69.7304 25.1271C69.1357 25.1271 66.5764 25.1837 66.0746 25.2357V31.2877C66.5194 31.316 69.2451 31.3727 69.7304 31.3727C72.6226 31.3727 74.1782 30.818 74.1782 28.3632V28.113ZM78.3976 41.8504H74.9631C74.6562 41.8504 74.5421 41.5695 74.4041 41.291L70.3511 34.5261H69.7327C68.9978 34.5261 66.7239 34.4459 66.077 34.4128V41.291C66.077 41.5979 65.8486 41.8504 65.5394 41.8504H62.728C62.4212 41.8504 62.1691 41.5979 62.1691 41.291V23.0027C62.1691 22.441 62.5021 22.2474 63.0681 22.1624C64.5333 21.9406 67.6777 21.8013 69.7327 21.8013C74.0616 21.8013 78.0623 23.3379 78.0623 28.1106V28.3632C78.0623 31.3184 76.5709 32.9376 74.2662 33.8251L78.6783 41.2934C78.7354 41.3784 78.7354 41.4562 78.7354 41.52C78.733 41.7088 78.6212 41.8504 78.3976 41.8504Z" fill="black"/>
<path d="M21.9702 24.5679C21.573 24.7804 21.4327 25.2737 21.6396 25.6632C21.8513 26.0621 22.3532 26.2037 22.7504 25.996C23.1452 25.7812 23.2903 25.2902 23.0786 24.8937C22.9335 24.6246 22.6529 24.4664 22.3603 24.4664C22.2271 24.4688 22.0939 24.5019 21.9702 24.5679ZM24.1656 24.6033C23.8088 24.7898 23.6851 25.2265 23.873 25.5782C24.0586 25.9275 24.4986 26.0597 24.8506 25.8662C25.2097 25.675 25.3358 25.2407 25.1479 24.8913C25.0195 24.6506 24.7721 24.5137 24.5152 24.5137C24.3963 24.5113 24.2774 24.542 24.1656 24.6033ZM19.8866 25.184C19.4395 25.4248 19.2682 25.9818 19.5132 26.4256C19.7558 26.8717 20.3148 27.044 20.7715 26.8009C21.221 26.5601 21.3851 26.0031 21.1449 25.5593C20.9784 25.2477 20.6597 25.0731 20.3291 25.0731C20.1792 25.0731 20.027 25.1085 19.8866 25.184ZM26.2729 25.2831C25.9637 25.4531 25.8448 25.8426 26.0113 26.1447C26.1778 26.4515 26.5703 26.5625 26.87 26.3949C27.1863 26.2297 27.3005 25.8473 27.1292 25.5428C27.015 25.3303 26.7938 25.21 26.5679 25.21C26.4656 25.2123 26.3657 25.2336 26.2729 25.2831ZM18.2336 26.5695C17.8316 26.7891 17.6818 27.2706 17.9006 27.6742C18.1147 28.0637 18.6046 28.2124 19.0018 27.9999C19.4062 27.7875 19.5537 27.2918 19.3396 26.9024C19.1921 26.6309 18.9091 26.4728 18.6165 26.4728C18.4857 26.4704 18.3549 26.5035 18.2336 26.5695ZM28.0854 26.579C27.8142 26.7253 27.7167 27.0511 27.857 27.3131C27.9997 27.5751 28.328 27.6695 28.6015 27.5373C28.8631 27.3886 28.9678 27.0605 28.8227 26.7961C28.7228 26.6168 28.5349 26.5105 28.3422 26.5105C28.2566 26.5129 28.1662 26.5341 28.0854 26.579ZM29.4245 28.3516C29.2128 28.4744 29.1248 28.7529 29.2485 28.9677C29.365 29.1872 29.6409 29.2651 29.8574 29.1495C30.0786 29.0314 30.1618 28.7623 30.0429 28.5428C29.9573 28.387 29.8003 28.3021 29.6385 28.3021C29.5648 28.3021 29.4935 28.3162 29.4245 28.3516ZM17.0562 28.4083C16.7018 28.5971 16.5734 29.0362 16.7565 29.3855C16.9516 29.7325 17.3916 29.867 17.7412 29.6782C18.0956 29.4917 18.2312 29.0527 18.0386 28.6986C17.9054 28.4602 17.6532 28.3233 17.3964 28.3233C17.2822 28.3233 17.1656 28.3516 17.0562 28.4083ZM30.1047 30.2895C29.836 30.4288 29.7361 30.7616 29.8835 31.0236C30.0215 31.2856 30.3568 31.3824 30.6137 31.2478C30.8825 31.0944 30.9848 30.764 30.8444 30.5067C30.7445 30.3249 30.5566 30.2234 30.364 30.2234C30.2736 30.2234 30.188 30.247 30.1047 30.2895ZM16.4782 30.5374C16.1738 30.7002 16.062 31.0826 16.2237 31.3871C16.395 31.6987 16.7779 31.8096 17.0871 31.6444C17.394 31.4768 17.5105 31.0897 17.344 30.7899C17.2298 30.5798 17.011 30.4595 16.7851 30.4595C16.6828 30.4571 16.5758 30.4807 16.4782 30.5374ZM30.1095 32.3454C29.7979 32.5154 29.6885 32.893 29.8478 33.2046C30.012 33.5044 30.4092 33.6177 30.716 33.4548C31.0228 33.2872 31.1346 32.9048 30.9681 32.6003C30.854 32.3879 30.6375 32.2699 30.4115 32.2699C30.3093 32.2699 30.207 32.2935 30.1095 32.3454ZM16.571 32.7443C16.3094 32.8883 16.2095 33.2188 16.3546 33.4808C16.4973 33.7475 16.8303 33.8395 17.0895 33.6932C17.3559 33.5587 17.4629 33.2235 17.3131 32.9638C17.2108 32.7844 17.0253 32.6806 16.8303 32.6806C16.7423 32.6806 16.6519 32.7018 16.571 32.7443ZM29.4506 34.3093C29.0962 34.4934 28.9654 34.9418 29.1533 35.2912C29.3484 35.6382 29.786 35.7703 30.1333 35.5815C30.4948 35.388 30.6209 34.956 30.4353 34.6019C30.3045 34.3612 30.0548 34.2219 29.7955 34.2219C29.679 34.2219 29.56 34.2503 29.4506 34.3093ZM17.3321 34.838C17.1085 34.9536 17.0301 35.2275 17.149 35.454C17.2679 35.6688 17.5391 35.7515 17.765 35.6358C17.9838 35.5131 18.0671 35.2393 17.9458 35.0197C17.8625 34.871 17.7032 34.7837 17.5414 34.7837C17.4701 34.7861 17.3987 34.8026 17.3321 34.838ZM28.1853 35.9875C27.7857 36.1999 27.6406 36.6956 27.8546 37.0851C28.0663 37.4793 28.5611 37.6256 28.963 37.4108C29.3603 37.2055 29.5053 36.7074 29.2913 36.3156C29.1414 36.0441 28.8608 35.8884 28.5706 35.8884C28.4398 35.8884 28.3089 35.9214 28.1853 35.9875ZM18.5927 36.4572C18.3287 36.5941 18.2288 36.9269 18.3715 37.1866C18.5119 37.4509 18.8425 37.5477 19.1065 37.4014C19.3681 37.2668 19.468 36.9387 19.3277 36.6744C19.2302 36.495 19.0423 36.3958 18.8496 36.3958C18.764 36.3935 18.676 36.4147 18.5927 36.4572ZM26.418 37.1913C25.9709 37.4297 25.7972 37.9867 26.047 38.4352C26.2896 38.879 26.8533 39.0442 27.3052 38.8082C27.7524 38.5627 27.9212 38.0033 27.6786 37.5666C27.5098 37.2574 27.191 37.078 26.8604 37.078C26.7106 37.0756 26.5584 37.111 26.418 37.1913ZM20.3219 37.5902C20.0056 37.7601 19.8938 38.1378 20.065 38.4447C20.2244 38.7515 20.6145 38.8695 20.9237 38.7043C21.2329 38.532 21.3494 38.1449 21.1806 37.8428C21.064 37.635 20.8428 37.5147 20.6192 37.5147C20.5193 37.5123 20.4171 37.5359 20.3219 37.5902ZM24.4415 37.9938C24.0419 38.2039 23.9039 38.6949 24.1204 39.0938C24.3273 39.4856 24.822 39.639 25.2216 39.4195C25.6212 39.2118 25.7639 38.7161 25.5523 38.3243C25.4024 38.0528 25.1218 37.8994 24.8316 37.8994C24.6984 37.897 24.5652 37.9277 24.4415 37.9938ZM22.3341 38.1189C21.9821 38.3078 21.856 38.7491 22.0416 39.0961C22.2366 39.4478 22.6743 39.58 23.0287 39.3912C23.3854 39.2071 23.5163 38.7657 23.3236 38.4116C23.1952 38.1709 22.943 38.0363 22.6814 38.0363C22.5648 38.0363 22.4435 38.0623 22.3341 38.1189Z" fill="black"/>
<path d="M22.3294 22.3538C22.1676 22.899 22.4792 23.4679 23.0311 23.6331C23.5805 23.7936 24.1537 23.4773 24.3202 22.9368C24.4843 22.3916 24.1704 21.8156 23.6209 21.6551C23.521 21.6268 23.4211 21.6126 23.3236 21.6126C22.8741 21.615 22.465 21.9077 22.3294 22.3538ZM25.1099 22.6866C24.9243 23.3168 25.2764 23.9683 25.9162 24.1548C26.5465 24.3412 27.2077 23.9848 27.3932 23.3593C27.5835 22.7267 27.222 22.0658 26.5869 21.8817C26.4751 21.8487 26.3633 21.8345 26.2515 21.8345C25.7354 21.8369 25.2621 22.172 25.1099 22.6866ZM19.5394 22.9274C19.3967 23.4136 19.6797 23.9211 20.1697 24.0651C20.6549 24.2067 21.171 23.9329 21.3138 23.4443C21.4517 22.9628 21.171 22.4529 20.6882 22.3089C20.6026 22.283 20.517 22.2735 20.4313 22.2735C20.0294 22.2712 19.6607 22.5308 19.5394 22.9274ZM27.9236 23.9895C27.7619 24.5324 28.0782 25.106 28.6277 25.2665C29.1771 25.427 29.7551 25.1107 29.9168 24.5655C30.081 24.0226 29.767 23.449 29.2152 23.2861C29.1177 23.2578 29.0178 23.2437 28.9226 23.2437C28.4731 23.2437 28.0592 23.5387 27.9236 23.9895ZM17.1419 24.3884C17.0277 24.7732 17.2465 25.1697 17.6342 25.2854C18.0195 25.3963 18.4239 25.1744 18.5357 24.7944C18.6475 24.4144 18.4262 24.0131 18.0433 23.8998C17.9743 23.881 17.9054 23.8715 17.8388 23.8715C17.5224 23.8692 17.2346 24.0745 17.1419 24.3884ZM30.1761 26.0266C30.031 26.5175 30.314 27.0226 30.7993 27.1643C31.2892 27.3059 31.7982 27.025 31.9457 26.5388C32.0908 26.0572 31.8125 25.5498 31.3202 25.4081C31.2345 25.3822 31.1465 25.3704 31.0609 25.3704C30.6661 25.3727 30.2998 25.63 30.1761 26.0266ZM15.2438 26.5529C15.1511 26.8598 15.3318 27.1855 15.6434 27.2728C15.955 27.3625 16.2785 27.1879 16.3736 26.881C16.4711 26.5742 16.2856 26.2508 15.9764 26.1564C15.9217 26.1422 15.8694 26.1351 15.817 26.1351C15.5578 26.1328 15.3199 26.2933 15.2438 26.5529ZM31.7792 28.6513C31.6627 29.0408 31.891 29.4397 32.2716 29.5482C32.6593 29.6615 33.0612 29.442 33.173 29.0596C33.2872 28.6773 33.0684 28.276 32.683 28.1674C32.6141 28.1462 32.5427 28.1367 32.4737 28.1367C32.1598 28.1367 31.8696 28.3421 31.7792 28.6513ZM14.1283 29.239C14.0593 29.4727 14.1877 29.7182 14.4208 29.7866C14.6563 29.8551 14.8989 29.7182 14.9679 29.4869C15.0369 29.2579 14.9037 29.0148 14.6682 28.9463C14.6254 28.9345 14.585 28.9298 14.5445 28.9298C14.3566 28.9275 14.183 29.0502 14.1283 29.239ZM32.4595 31.5711C32.3643 31.8756 32.5427 32.206 32.8591 32.2934C33.1706 32.3854 33.4941 32.2084 33.5893 31.8968C33.6796 31.5923 33.506 31.2666 33.1897 31.1746C33.135 31.1604 33.0802 31.151 33.0255 31.151C32.7687 31.1486 32.5308 31.3162 32.4595 31.5711ZM13.6003 32.0998C13.5075 32.409 13.6906 32.7301 14.0022 32.8221C14.3138 32.9142 14.6373 32.7395 14.7324 32.4279C14.8252 32.1211 14.6468 31.7953 14.3352 31.7033C14.2805 31.6891 14.2258 31.6797 14.1711 31.6797C13.9166 31.6797 13.6811 31.8473 13.6003 32.0998ZM32.2192 34.5145C32.155 34.7435 32.2858 34.9889 32.5142 35.055C32.752 35.1235 32.9922 34.9937 33.0588 34.7576C33.1302 34.531 32.9994 34.2855 32.7615 34.2171C32.7211 34.2053 32.683 34.2006 32.6426 34.2006C32.4547 34.2006 32.2763 34.3257 32.2192 34.5145ZM14.0213 34.9417C13.9118 35.3218 14.1212 35.7254 14.5112 35.8363C14.8942 35.952 15.2985 35.7277 15.4103 35.3454C15.5245 34.963 15.3033 34.5617 14.9203 34.4579C14.849 34.4366 14.7776 34.4272 14.7063 34.4272C14.3947 34.4248 14.1093 34.6302 14.0213 34.9417ZM30.8159 37.118C30.7279 37.4296 30.9039 37.7553 31.2107 37.8427C31.5271 37.9347 31.8553 37.7577 31.9457 37.4485C32.0337 37.144 31.8577 36.8135 31.5461 36.7215C31.4914 36.7073 31.4367 36.6979 31.382 36.6979C31.1299 36.6979 30.8944 36.8631 30.8159 37.118ZM15.2414 37.4555C15.0963 37.9394 15.3746 38.4469 15.8646 38.5933C16.3593 38.7372 16.866 38.4587 17.0134 37.9748C17.1561 37.491 16.8707 36.9764 16.3831 36.8324C16.2951 36.8064 16.2095 36.7946 16.1238 36.7946C15.7266 36.7946 15.3627 37.0543 15.2414 37.4555ZM28.6539 39.2046C28.5444 39.5846 28.768 39.9859 29.151 40.0992C29.5339 40.2125 29.9382 39.993 30.0477 39.6153C30.1642 39.2306 29.9454 38.8293 29.5601 38.7184C29.4911 38.6971 29.4197 38.6877 29.3508 38.6877C29.0368 38.6877 28.749 38.8954 28.6539 39.2046ZM17.2774 39.4383C17.1181 39.9788 17.4249 40.55 17.9791 40.7129C18.5333 40.871 19.1065 40.5571 19.2706 40.0166C19.43 39.476 19.116 38.8977 18.5642 38.7372C18.4643 38.7089 18.3668 38.6948 18.2717 38.6948C17.8197 38.6948 17.4106 38.9874 17.2774 39.4383ZM19.7939 40.6421C19.6108 41.2747 19.9651 41.9285 20.6026 42.115C21.2329 42.2943 21.9013 41.9332 22.0796 41.3124C22.2652 40.6822 21.9084 40.0237 21.2709 39.8395C21.1592 39.8089 21.0474 39.7923 20.9356 39.7923C20.4194 39.7923 19.9437 40.1275 19.7939 40.6421ZM25.8757 40.5547C25.733 41.041 26.0161 41.5508 26.5013 41.6924C26.9936 41.8341 27.505 41.5603 27.6477 41.0717C27.7904 40.5901 27.5145 40.0803 27.0222 39.9387C26.9342 39.9104 26.8462 39.8986 26.7606 39.8986C26.361 39.8986 25.9923 40.1582 25.8757 40.5547ZM22.8669 41.0669C22.7076 41.6075 23.0239 42.1763 23.571 42.3392C24.1228 42.5044 24.7008 42.1905 24.8577 41.6476C25.0147 41.1 24.7079 40.5264 24.1561 40.3683C24.0562 40.3399 23.9587 40.3258 23.8611 40.3258C23.414 40.3258 23.0001 40.6161 22.8669 41.0669Z" fill="black"/>
<path d="M24.3249 18.8205C23.8778 19.2926 23.8992 20.0361 24.3772 20.4799C24.8529 20.926 25.6022 20.9048 26.047 20.4327C26.4965 19.9583 26.4703 19.2195 25.997 18.771C25.7687 18.5585 25.4785 18.4547 25.1883 18.4547C24.8744 18.4547 24.558 18.5774 24.3249 18.8205ZM20.5788 19.1085C20.2268 19.4815 20.2434 20.0645 20.6192 20.4185C20.9926 20.7655 21.5825 20.7466 21.9369 20.376C22.2865 20.0055 22.2699 19.4177 21.8965 19.0684C21.7157 18.9008 21.4874 18.8182 21.259 18.8182C21.0093 18.8205 20.7619 18.9173 20.5788 19.1085ZM27.995 19.8119C27.4907 20.3406 27.5121 21.1739 28.0473 21.6766C28.5801 22.177 29.4292 22.1511 29.9287 21.6247C30.4306 21.0936 30.4091 20.2557 29.874 19.7576C29.6147 19.5169 29.2865 19.3965 28.9583 19.3965C28.6086 19.3941 28.2566 19.5357 27.995 19.8119ZM17.0039 20.5436C16.7184 20.8434 16.7327 21.3131 17.0348 21.6011C17.3392 21.882 17.8173 21.8702 18.1027 21.568C18.3882 21.2683 18.3739 20.7938 18.0718 20.5129C17.9243 20.3784 17.7388 20.31 17.5533 20.31C17.3511 20.31 17.1537 20.3878 17.0039 20.5436ZM31.1013 21.8772C30.5186 22.4862 30.5423 23.4422 31.1608 24.0205C31.7744 24.6011 32.7448 24.5681 33.3228 23.9638C33.9032 23.3478 33.8746 22.3871 33.261 21.8112C32.9637 21.535 32.5879 21.3981 32.2144 21.3981C31.8077 21.3981 31.401 21.5586 31.1013 21.8772ZM14.0355 23.0645C13.8214 23.2911 13.8309 23.6405 14.0569 23.8529C14.2876 24.0677 14.642 24.0559 14.8513 23.8317C15.0654 23.6051 15.0535 23.2534 14.8299 23.0409C14.7181 22.9418 14.5778 22.8922 14.4398 22.8922C14.2924 22.8899 14.1449 22.9489 14.0355 23.0645ZM33.6511 25.0992C33.1468 25.6279 33.1682 26.4658 33.7081 26.9662C34.2457 27.4666 35.0877 27.436 35.5872 26.9096C36.0938 26.3761 36.07 25.5453 35.5301 25.0402C35.2756 24.8018 34.9497 24.6838 34.6239 24.6838C34.2671 24.6838 33.9127 24.823 33.6511 25.0992ZM11.6784 26.1543C11.3906 26.454 11.4072 26.9261 11.7117 27.2117C12.0138 27.4926 12.4895 27.4808 12.7773 27.1834C13.0579 26.8836 13.046 26.4116 12.744 26.1283C12.5989 25.9914 12.4133 25.923 12.2278 25.923C12.028 25.9206 11.8282 26.0008 11.6784 26.1543ZM35.0805 28.8734C34.631 29.3455 34.6548 30.089 35.1329 30.5328C35.6086 30.9813 36.3602 30.9553 36.805 30.4832C37.2545 30.0135 37.2307 29.27 36.755 28.8262C36.5267 28.6114 36.2341 28.5052 35.9416 28.5052C35.6276 28.5029 35.3136 28.628 35.0805 28.8734ZM10.4487 29.7846C10.1014 30.1575 10.1109 30.7381 10.4891 31.0875C10.8626 31.4392 11.4524 31.4179 11.8068 31.0497C12.1588 30.6791 12.1374 30.089 11.7688 29.7421C11.5856 29.5721 11.3549 29.4895 11.1266 29.4895C10.8792 29.4919 10.6318 29.5886 10.4487 29.7846ZM35.3802 32.9451C35.0282 33.3157 35.0496 33.9011 35.423 34.2504C35.8012 34.6045 36.3864 34.5832 36.7407 34.2103C37.0928 33.8397 37.0809 33.2567 36.7003 32.905C36.5219 32.7374 36.2936 32.6548 36.0629 32.6548C35.8131 32.6571 35.5634 32.7539 35.3802 32.9451ZM10.3821 33.5116C9.93732 33.9813 9.95872 34.7272 10.4344 35.171C10.9101 35.6194 11.6594 35.5958 12.1065 35.1237C12.5537 34.654 12.5323 33.9105 12.0566 33.4597C11.8282 33.2472 11.538 33.141 11.2479 33.141C10.9315 33.141 10.6176 33.2661 10.3821 33.5116ZM34.4122 36.8138C34.1244 37.1136 34.1387 37.588 34.4431 37.876C34.7499 38.1592 35.2256 38.145 35.5134 37.8382C35.7965 37.5384 35.7846 37.064 35.4825 36.7807C35.335 36.6462 35.1495 36.5801 34.964 36.5777C34.7618 36.5777 34.562 36.6556 34.4122 36.8138ZM11.6023 37.0876C11.098 37.614 11.1147 38.4495 11.6522 38.9547C12.1921 39.4527 13.0341 39.4244 13.5336 38.898C14.0379 38.3693 14.0117 37.529 13.4789 37.0333C13.222 36.7925 12.8962 36.6722 12.5727 36.6722C12.2207 36.6698 11.8639 36.8138 11.6023 37.0876ZM13.8642 40.0357C13.2863 40.6541 13.3148 41.603 13.9308 42.1837C14.5445 42.7596 15.5149 42.7336 16.0905 42.1199C16.6709 41.5086 16.6423 40.5526 16.0263 39.972C15.729 39.6958 15.3532 39.5589 14.9774 39.5589C14.5707 39.5566 14.1639 39.7171 13.8642 40.0357ZM32.3334 40.1703C32.1217 40.3945 32.1336 40.7486 32.3571 40.9586C32.5855 41.1663 32.9399 41.1569 33.1516 40.9303C33.3656 40.7108 33.3561 40.3544 33.1278 40.1467C33.0208 40.0452 32.8828 39.9932 32.7425 39.9932H32.7401C32.5902 39.9932 32.4428 40.0522 32.3334 40.1703ZM17.256 42.3772C16.7541 42.8989 16.7779 43.7368 17.3155 44.2419C17.8506 44.7423 18.695 44.7164 19.1945 44.1853C19.6963 43.6542 19.6773 42.8186 19.1398 42.3182C18.8829 42.0775 18.5547 41.9594 18.2288 41.9594C17.872 41.9594 17.52 42.0987 17.256 42.3772ZM29.0867 42.4268C28.7989 42.7266 28.8132 43.2034 29.1152 43.4842C29.4221 43.7699 29.8978 43.7533 30.1832 43.4512C30.4686 43.1538 30.4567 42.6817 30.1523 42.3961C30.0072 42.2592 29.8193 42.1908 29.6338 42.1908C29.434 42.1931 29.2342 42.271 29.0867 42.4268ZM21.1377 43.5621C20.6906 44.0319 20.712 44.7801 21.1901 45.2191C21.6705 45.6676 22.415 45.6464 22.8598 45.1743C23.3093 44.7046 23.2903 43.9587 22.8146 43.5149C22.5862 43.3001 22.2961 43.1939 22.0035 43.1939C21.6848 43.1963 21.3708 43.319 21.1377 43.5621ZM25.2525 43.6211C24.9029 43.9894 24.9196 44.5747 25.293 44.9264C25.6688 45.2781 26.2587 45.2545 26.6107 44.8863C26.9627 44.5181 26.9484 43.9304 26.5726 43.581C26.3919 43.4134 26.1611 43.3308 25.9352 43.3308C25.6854 43.3308 25.4357 43.4276 25.2525 43.6211Z" fill="black"/>
<path d="M25.3168 14.6711C24.7603 14.782 24.4011 15.3107 24.5129 15.8654C24.6247 16.413 25.1622 16.7694 25.7164 16.6609C26.2706 16.5499 26.6298 16.0165 26.518 15.4665C26.4205 14.9826 25.9947 14.6498 25.5166 14.6498C25.4548 14.6522 25.3858 14.6593 25.3168 14.6711ZM21.076 14.9496C20.6407 15.0157 20.3386 15.4146 20.4005 15.8489C20.4671 16.2832 20.8738 16.5806 21.3091 16.5169C21.7443 16.4532 22.0488 16.0519 21.9846 15.6176C21.9275 15.2234 21.585 14.9401 21.1925 14.9401C21.1544 14.9401 21.1164 14.9425 21.076 14.9496ZM29.4031 15.5302C28.7419 15.6978 28.3375 16.3658 28.5088 17.0267C28.6801 17.6829 29.3556 18.0842 30.0168 17.9142C30.678 17.7466 31.08 17.0739 30.9111 16.4201C30.766 15.8607 30.2641 15.4948 29.7099 15.4948C29.6124 15.4925 29.5078 15.5043 29.4031 15.5302ZM16.7376 16.2266C16.3594 16.3871 16.1834 16.819 16.3475 17.1967C16.5092 17.5696 16.9493 17.7419 17.3251 17.5814C17.7009 17.4209 17.8792 16.9842 17.7151 16.6137C17.5938 16.3328 17.3203 16.1676 17.0325 16.1676C16.9374 16.1652 16.8351 16.1864 16.7376 16.2266ZM33.0256 17.3501C32.2121 17.6027 31.7531 18.4595 32.01 19.2715C32.2621 20.0787 33.1326 20.5295 33.9461 20.277C34.7619 20.0244 35.2138 19.1629 34.9593 18.3556C34.7524 17.6994 34.1459 17.2793 33.4894 17.2793C33.3372 17.2793 33.1802 17.3029 33.0256 17.3501ZM12.8225 18.4807C12.4776 18.7522 12.4182 19.2502 12.6917 19.5948C12.9676 19.9395 13.4719 19.9961 13.8144 19.7247C14.1616 19.4508 14.2235 18.9552 13.9476 18.6106C13.7882 18.4123 13.5575 18.3108 13.322 18.3108C13.146 18.3108 12.97 18.3674 12.8225 18.4807ZM36.0011 20.2133C35.1163 20.539 34.6644 21.5067 34.9926 22.3872C35.3209 23.2652 36.3008 23.7114 37.1809 23.388C38.0633 23.0646 38.5152 22.0898 38.1893 21.2141C37.9325 20.5295 37.2831 20.1094 36.5934 20.1094C36.3959 20.107 36.1961 20.1424 36.0011 20.2133ZM9.71145 21.351C9.25002 21.6767 9.13822 22.3046 9.46646 22.7672C9.79469 23.2228 10.4321 23.3313 10.8912 23.008C11.3526 22.6822 11.462 22.0473 11.1362 21.5941C10.9364 21.3132 10.62 21.1645 10.3013 21.1645C10.0991 21.1645 9.89222 21.2235 9.71145 21.351ZM38.0728 23.7987C37.1309 24.2023 36.6956 25.2786 37.1024 26.2157C37.5067 27.1481 38.5984 27.58 39.5379 27.1788C40.4775 26.7751 40.9127 25.6917 40.506 24.7594C40.2039 24.063 39.5213 23.6476 38.8054 23.6476C38.5604 23.6476 38.3106 23.6972 38.0728 23.7987ZM7.53273 24.8868C6.95713 25.2503 6.78112 26.008 7.14979 26.5839C7.5137 27.1575 8.28196 27.3298 8.85756 26.9687C9.43792 26.6052 9.60917 25.8428 9.24288 25.2668C9.0074 24.8963 8.60782 24.6956 8.19634 24.6956C7.97038 24.6956 7.73966 24.7594 7.53273 24.8868ZM39.2311 28.1017C38.3891 28.5147 38.0419 29.5297 38.4605 30.3653C38.8815 31.2079 39.9019 31.5455 40.7439 31.1301C41.5858 30.717 41.9331 29.7067 41.5145 28.8664C41.2172 28.2716 40.6107 27.927 39.9827 27.927C39.7306 27.927 39.4737 27.9837 39.2311 28.1017ZM6.38154 28.7555C5.63706 29.1686 5.37304 30.1009 5.79166 30.8421C6.2079 31.5785 7.14979 31.8429 7.89427 31.4275C8.63874 31.0144 8.90275 30.0773 8.48413 29.3385C8.20109 28.8381 7.67782 28.5572 7.1379 28.5572C6.8834 28.5572 6.62177 28.6186 6.38154 28.7555ZM39.2882 32.5723C38.5461 32.9853 38.2797 33.9224 38.6983 34.6612C39.117 35.4024 40.0588 35.6596 40.8009 35.2442C41.5454 34.8288 41.8118 33.8988 41.3908 33.1576C41.1078 32.6572 40.5845 32.374 40.0446 32.374C39.7901 32.374 39.5284 32.4401 39.2882 32.5723ZM6.441 32.8673C5.60139 33.278 5.24937 34.2906 5.67037 35.1309C6.08898 35.9688 7.11412 36.3087 7.95611 35.8957C8.7981 35.4826 9.14536 34.4676 8.72674 33.6321C8.42705 33.0325 7.83004 32.6903 7.20449 32.6903C6.94523 32.6903 6.68361 32.7469 6.441 32.8673ZM7.64927 36.8209C6.70976 37.2222 6.27213 38.3009 6.67885 39.2403C7.0832 40.1751 8.17969 40.6023 9.11682 40.201C10.0563 39.7974 10.4892 38.714 10.0825 37.7816C9.78043 37.0853 9.09779 36.6722 8.38186 36.6722C8.13687 36.6699 7.88712 36.7171 7.64927 36.8209ZM38.3273 37.031C37.7493 37.3969 37.5757 38.1546 37.942 38.7281C38.3083 39.3041 39.0741 39.4717 39.6521 39.1105C40.2277 38.747 40.4037 37.9917 40.0351 37.4134C39.7996 37.0428 39.3952 36.8422 38.9861 36.8422C38.7602 36.8398 38.5318 36.9012 38.3273 37.031ZM10.0016 40.6117C9.12157 40.9375 8.66728 41.9099 8.99552 42.7833C9.32375 43.6661 10.3061 44.1075 11.1837 43.7817C12.0686 43.456 12.5205 42.4906 12.1922 41.6078C11.9377 40.928 11.286 40.5055 10.5939 40.5055C10.3965 40.5055 10.1967 40.5409 10.0016 40.6117ZM36.2913 40.9918C35.8299 41.3175 35.7204 41.9501 36.0463 42.408C36.3769 42.8683 37.012 42.9745 37.4758 42.6511C37.9348 42.3277 38.0442 41.6952 37.716 41.2325C37.5162 40.954 37.1999 40.8053 36.8788 40.8053C36.6766 40.8053 36.4697 40.8643 36.2913 40.9918ZM13.2388 43.7227C12.4253 43.9729 11.971 44.8321 12.2279 45.6417C12.4824 46.4561 13.3458 46.9022 14.1593 46.6472C14.9751 46.397 15.4318 45.5402 15.1773 44.7306C14.9703 44.0744 14.359 43.6519 13.7002 43.6519C13.5456 43.6519 13.391 43.6755 13.2388 43.7227ZM33.3705 44.2727C33.0256 44.5465 32.9661 45.0445 33.2397 45.3868C33.5132 45.7338 34.0174 45.7857 34.3623 45.5166C34.7096 45.2428 34.769 44.7471 34.4931 44.4002C34.3362 44.2019 34.1031 44.1004 33.8676 44.1004C33.694 44.1027 33.5179 44.157 33.3705 44.2727ZM17.1681 46.0878C16.5068 46.2554 16.1073 46.9234 16.2761 47.582C16.445 48.2452 17.1181 48.6371 17.7817 48.4695C18.4453 48.2995 18.8473 47.6362 18.6784 46.9753C18.5357 46.4183 18.0315 46.0501 17.4773 46.0501C17.375 46.0501 17.2727 46.0595 17.1681 46.0878ZM29.8574 46.4183C29.4816 46.5764 29.3056 47.0131 29.4697 47.386C29.6338 47.7637 30.0715 47.9337 30.4473 47.7732C30.8255 47.6126 31.0015 47.176 30.8374 46.8007C30.7161 46.5221 30.4402 46.3546 30.1524 46.3546C30.0548 46.3569 29.9573 46.3758 29.8574 46.4183ZM21.466 47.3365C20.9118 47.4474 20.5527 47.9832 20.6645 48.5308C20.7763 49.0832 21.3162 49.4396 21.8704 49.3286C22.4222 49.2153 22.7837 48.6843 22.6719 48.1296C22.5744 47.6481 22.1463 47.3152 21.6682 47.3152C21.6016 47.3152 21.535 47.3223 21.466 47.3365ZM25.8758 47.4805C25.4405 47.5442 25.1385 47.9478 25.2027 48.3821C25.2669 48.8164 25.6736 49.1139 26.1089 49.0501C26.5465 48.9864 26.851 48.5851 26.7844 48.1508C26.7273 47.7543 26.3824 47.471 25.99 47.471C25.9543 47.471 25.9138 47.4734 25.8758 47.4805Z" fill="black"/>
<path d="M22.6387 10.944C22.6387 11.468 23.0668 11.8905 23.5901 11.8905C24.1181 11.8905 24.5462 11.468 24.5462 10.944C24.5462 10.4177 24.1181 9.99988 23.5901 9.99988C23.0668 9.99988 22.6387 10.4177 22.6387 10.944ZM28.095 11.3972C27.9475 11.9425 28.2733 12.4972 28.818 12.6412C29.3651 12.7875 29.9288 12.4665 30.0739 11.9236C30.2213 11.3807 29.8931 10.826 29.346 10.6797C29.258 10.6561 29.1677 10.6443 29.0797 10.6443C28.6301 10.6466 28.2186 10.944 28.095 11.3972ZM17.8364 10.682C17.2918 10.826 16.9635 11.3807 17.111 11.9236C17.2561 12.4665 17.8222 12.7875 18.3645 12.6412C18.9115 12.4972 19.2374 11.9401 19.0923 11.3949C18.9686 10.9417 18.5571 10.6443 18.1052 10.6443C18.0172 10.6466 17.9268 10.6561 17.8364 10.682ZM32.9209 13.4885C32.7711 14.1919 33.223 14.8835 33.9294 15.0322C34.6382 15.1809 35.3328 14.7325 35.485 14.0338C35.6372 13.3257 35.1829 12.6388 34.4765 12.4924C34.3837 12.4736 34.291 12.4641 34.1982 12.4641C33.5941 12.4618 33.0518 12.8772 32.9209 13.4885ZM12.7084 12.4901C12.002 12.6388 11.5477 13.3257 11.6975 14.0338C11.8474 14.7348 12.5443 15.1833 13.2507 15.0322C13.9595 14.8835 14.4114 14.1919 14.2615 13.4885C14.1307 12.8772 13.5884 12.4618 12.9843 12.4618C12.8939 12.4618 12.8011 12.4688 12.7084 12.4901ZM37.0286 16.8639C36.8907 17.7231 37.4829 18.5327 38.3487 18.6696C39.2097 18.8065 40.0279 18.2164 40.1635 17.3572C40.3015 16.4933 39.7068 15.6931 38.8458 15.5539C38.7602 15.5421 38.6769 15.535 38.5937 15.535C37.8254 15.535 37.1523 16.085 37.0286 16.8639ZM8.34143 15.5539C7.47804 15.6908 6.88579 16.4909 7.02375 17.3548C7.15932 18.214 7.97276 18.8018 8.83853 18.6672C9.70669 18.5303 10.299 17.7207 10.161 16.8615C10.0373 16.0826 9.36182 15.5326 8.59594 15.5326C8.51031 15.535 8.42706 15.5397 8.34143 15.5539ZM39.997 21.266C39.8828 22.3447 40.6749 23.3125 41.7595 23.4258C42.8488 23.5391 43.8217 22.7554 43.9335 21.6767C44.0476 20.5933 43.2603 19.6303 42.1733 19.517C42.102 19.5099 42.033 19.5075 41.964 19.5075C40.9674 19.5075 40.104 20.2534 39.997 21.266ZM5.01152 19.517C3.92216 19.6303 3.13487 20.5933 3.25142 21.6767C3.36559 22.7554 4.33602 23.5391 5.42538 23.4258C6.51236 23.3125 7.30203 22.3447 7.18786 21.266C7.08083 20.2534 6.22219 19.5075 5.22321 19.5075C5.15186 19.5075 5.0805 19.5075 5.01152 19.517ZM41.9141 26.4329C41.8523 27.6273 42.7751 28.6469 43.9763 28.7107C45.1822 28.772 46.2121 27.8562 46.2739 26.6595C46.3381 25.4604 45.4081 24.4478 44.2094 24.3841C44.1689 24.3817 44.1285 24.3817 44.0904 24.3817C42.9368 24.3817 41.9759 25.2716 41.9141 26.4329ZM2.97552 24.3864C1.77913 24.4478 0.849132 25.4604 0.910973 26.6619C0.975193 27.8562 2.00508 28.7744 3.20861 28.713C4.41213 28.6493 5.33499 27.6296 5.27315 26.4353C5.21131 25.274 4.2504 24.3841 3.09444 24.3841C3.05639 24.3817 3.01357 24.3841 2.97552 24.3864ZM42.435 31.9963C42.435 33.2993 43.4958 34.3567 44.8064 34.3567C46.1193 34.3567 47.1825 33.2993 47.1825 31.9987C47.1825 30.6887 46.1193 29.643 44.8111 29.643C43.4958 29.643 42.435 30.6887 42.435 31.9963ZM0 31.9987C0 33.2993 1.06795 34.3567 2.37851 34.3567C3.68669 34.3567 4.74751 33.2993 4.74751 31.9963C4.74751 30.6887 3.68669 29.6454 2.37851 29.6454C1.06795 29.643 0 30.6887 0 31.9987ZM43.9739 35.2867C42.7751 35.3481 41.8499 36.3678 41.9117 37.5621C41.9736 38.7636 43.0011 39.6723 44.207 39.6109C45.4057 39.5496 46.3334 38.5393 46.2715 37.3355C46.2121 36.1813 45.244 35.2844 44.0904 35.2844C44.05 35.2844 44.0119 35.2844 43.9739 35.2867ZM0.913354 37.3355C0.851513 38.5393 1.77913 39.5496 2.9779 39.6109C4.1838 39.6723 5.21131 38.7659 5.27553 37.5621C5.33975 36.3678 4.41451 35.3481 3.21099 35.2867C3.17293 35.2844 3.13488 35.2844 3.09682 35.2844C1.94087 35.2844 0.972817 36.1813 0.913354 37.3355ZM41.7595 40.574C40.6749 40.6873 39.8828 41.655 39.997 42.7337C40.1112 43.8172 41.0887 44.5937 42.1733 44.4804C43.2603 44.3671 44.05 43.4065 43.9335 42.323C43.8264 41.3128 42.9702 40.5645 41.9688 40.5645C41.8998 40.5622 41.8285 40.5645 41.7595 40.574ZM3.25142 42.3207C3.13725 43.4041 3.92454 44.3648 5.01152 44.4781C6.0985 44.5914 7.07369 43.8148 7.18548 42.7314C7.29965 41.6527 6.50998 40.6849 5.423 40.5716C5.35164 40.5622 5.28267 40.5598 5.21369 40.5598C4.21471 40.5622 3.35845 41.3128 3.25142 42.3207ZM38.3487 45.3325C37.4829 45.4694 36.8883 46.2743 37.0286 47.1359C37.1666 47.9998 37.98 48.5804 38.8458 48.4459C39.7092 48.309 40.3038 47.5088 40.1635 46.6425C40.0398 45.866 39.362 45.3136 38.5961 45.3136C38.5152 45.3113 38.4319 45.3184 38.3487 45.3325ZM7.02375 46.6402C6.88579 47.5064 7.47566 48.3066 8.34143 48.4435C9.20959 48.5804 10.0207 47.9998 10.161 47.1335C10.299 46.2743 9.70669 45.4694 8.83853 45.3325C8.75529 45.3184 8.66966 45.3136 8.58879 45.3136C7.82054 45.3136 7.14743 45.866 7.02375 46.6402ZM33.9294 48.9652C33.2206 49.1139 32.7687 49.8055 32.9209 50.5089C33.0708 51.2146 33.7677 51.6607 34.4765 51.512C35.1829 51.3633 35.6372 50.6741 35.485 49.966C35.3542 49.357 34.8095 48.9368 34.203 48.9368C34.115 48.9368 34.0222 48.9463 33.9294 48.9652ZM11.6999 49.966C11.5477 50.6741 12.002 51.361 12.7084 51.512C13.4148 51.6607 14.1117 51.2123 14.2615 50.5089C14.4114 49.8078 13.9595 49.1139 13.2531 48.9652C13.1627 48.9463 13.0699 48.9368 12.9819 48.9368C12.3754 48.9368 11.8307 49.357 11.6999 49.966ZM28.818 51.3562C28.2733 51.5026 27.9475 52.0596 28.0926 52.6025C28.24 53.1431 28.8014 53.4641 29.346 53.3177C29.8931 53.1737 30.2213 52.619 30.0739 52.0738C29.9526 51.6206 29.5363 51.3208 29.082 51.3208C28.9964 51.3208 28.9084 51.3303 28.818 51.3562ZM17.111 52.0738C16.9659 52.6167 17.2918 53.1714 17.8364 53.3154C18.3835 53.4617 18.9448 53.1407 19.0923 52.5978C19.2374 52.0573 18.9139 51.5002 18.3645 51.3539C18.2765 51.3303 18.1885 51.3185 18.1005 51.3185C17.6509 51.3208 17.2347 51.6182 17.111 52.0738ZM22.6387 53.0557C22.6387 53.5797 23.0668 53.9999 23.5901 53.9999C24.1181 53.9999 24.5462 53.5797 24.5462 53.0534C24.5462 52.5317 24.1181 52.1092 23.5901 52.1092C23.0668 52.1092 22.6387 52.5317 22.6387 53.0557Z" fill="black"/>
</svg>
