<svg width="192" height="64" viewBox="0 0 192 64" fill="#171921" xmlns="http://www.w3.org/2000/svg">
<mask id="mask0" mask-type="alpha" maskUnits="userSpaceOnUse" x="44" y="0" width="104" height="64">
<path fill-rule="evenodd" clip-rule="evenodd" d="M44 0H148V64H44V0Z" fill="white"/>
</mask>
<g mask="url(#mask0)">
</g>
<mask id="mask1" mask-type="alpha" maskUnits="userSpaceOnUse" x="44" y="0" width="104" height="64">
<path fill-rule="evenodd" clip-rule="evenodd" d="M44 0H148V64H44V0Z" fill="white"/>
</mask>
<g mask="url(#mask1)">
<path fill-rule="evenodd" clip-rule="evenodd" d="M127.594 55.0476L127.562 55.0721L127.279 54.7345C121.448 59.5238 114.042 62.1154 106.4 62.1154C97.6541 62.1154 89.4594 58.8168 83.3142 52.7701C77.1699 46.8032 73.7819 38.7931 73.7819 30.3123C73.7819 23.795 75.7514 17.4332 79.6117 12.0934C83.3941 6.83248 88.5939 2.9057 94.7392 0.628203L94.5036 0C88.2785 2.35627 82.9219 6.36081 79.1395 11.7016C75.2004 17.1978 73.0731 23.6374 73.0731 30.3123C73.0731 38.9496 76.5401 47.1163 82.843 53.2407C83.4349 53.812 84.0474 54.3615 84.6794 54.888L83.8662 55.8334C90.0903 61.0943 98.1273 64 106.4 64C114.516 64 122.315 61.1731 128.54 56.1475L127.594 55.0476Z" fill="black"/>
<path fill-rule="evenodd" clip-rule="evenodd" d="M79.9271 10.6805C79.7722 10.1713 79.6928 9.64218 79.6916 9.10999C79.6916 6.75372 81.2668 4.63276 84.1028 4.63276C84.7337 4.63276 85.2848 4.71154 85.7579 4.86808C86.2301 4.47622 86.7821 4.08334 87.3332 3.76924C86.3878 3.21982 85.2847 2.90674 84.1028 2.90674C80.6359 2.90674 77.722 5.65487 77.722 9.10999C77.722 10.2876 78.1153 11.4652 78.6663 12.4075C78.8241 12.1722 78.9818 11.9369 79.1385 11.7793C79.3761 11.3865 79.6916 10.9946 79.9271 10.6805V10.6805ZM88.4362 4.555C87.8852 4.86911 87.412 5.18321 86.9399 5.57609C87.9641 6.36083 88.5151 7.69602 88.5151 9.10999C88.5151 11.4652 86.7821 13.5064 84.1028 13.5064C82.6054 13.5064 81.4245 12.8782 80.6369 11.8581C80.4792 12.0934 80.3214 12.251 80.1637 12.4863C79.9281 12.8004 79.6916 13.1145 79.5328 13.4276C80.7688 14.5916 82.4042 15.2385 84.1028 15.2355C87.6486 15.2355 90.4846 12.5651 90.4846 9.10999C90.4846 7.30314 89.697 5.65487 88.4362 4.555V4.555ZM77.17 25.1292C77.17 27.0138 76.0669 28.6631 74.4128 29.2913V31.1759C77.0911 30.4699 79.1385 28.1136 79.1385 25.1292C79.1385 23.0092 77.9576 21.1246 76.2246 19.946C75.988 20.5742 75.8303 21.1246 75.5937 21.6741C76.6179 22.5376 77.17 23.795 77.17 25.1292ZM73.151 29.6054H72.7577C70.0794 29.6054 68.2665 27.5632 68.2665 25.1292C68.2665 22.8517 69.8428 20.7317 72.7577 20.7317C73.3876 20.7317 74.0175 20.8095 74.4906 21.0459C74.6484 20.4954 74.8061 19.946 75.0427 19.3966C74.3067 19.1453 73.5354 19.0127 72.7577 19.0037C69.2119 19.0037 66.3758 21.7528 66.3758 25.1292C66.3758 28.6631 69.2129 31.3324 72.7577 31.3324H73.151C73.151 31.0193 73.0721 30.6265 73.0721 30.3124C73.0721 30.077 73.151 29.8417 73.151 29.6054V29.6054ZM77.3277 36.9075C80.1637 36.9075 81.7389 39.0284 81.7389 41.3059C81.7389 43.3471 80.4792 45.1529 78.5086 45.6246C78.8241 46.174 79.1395 46.6456 79.4539 47.1951C81.8967 46.3315 83.7095 44.1328 83.7095 41.3059C83.7095 37.9296 80.7936 35.1804 77.3277 35.1804C76.4612 35.1804 75.5937 35.338 74.885 35.6511C74.9638 36.2015 75.0427 36.8297 75.2004 37.3802C75.8303 37.065 76.539 36.9085 77.3277 36.9085V36.9075ZM72.9144 41.3049C72.9144 40.1283 73.3097 39.0284 74.0963 38.1639C73.9386 37.5367 73.7819 36.9085 73.703 36.2803C72.0489 37.3791 70.9459 39.2637 70.9459 41.3049C70.9459 44.8398 73.7819 47.5092 77.3267 47.5092C77.5633 47.5092 77.8797 47.5092 78.1153 47.4314C77.7998 46.881 77.4065 46.3315 77.0911 45.7821C74.5695 45.6246 72.9144 43.7399 72.9144 41.3049V41.3049ZM108.29 35.4157V42.5623C108.29 44.2116 107.739 45.7821 105.612 45.7821C103.485 45.7821 102.933 44.2116 102.933 42.5623V35.4157H100.963V42.9552C100.963 45.5458 102.618 47.5092 105.613 47.5092C108.608 47.5092 110.26 45.5458 110.26 42.9552V35.4157H108.29ZM109.867 13.3498H115.224V14.9991H107.896V3.14104H109.867V13.3498ZM44 19.24H50.9339V20.966H45.9685V23.794H50.854V25.5221H45.9685V29.369H50.9318V31.0971H44V19.24ZM83.1575 18.6118L91.3511 27.0138V19.24H93.3207V31.5688L85.127 23.3223V31.0971H83.1575V18.6118Z" fill="black"/>
<path fill-rule="evenodd" clip-rule="evenodd" d="M132.006 19.2401H133.977V31.0961H132.006V19.2401ZM63.1455 37.1428V39.9708H67.399V41.6201H63.1455V47.2739H61.176V35.4158H67.5578V37.1439L63.1455 37.1428ZM71.0247 10.523H71.1036L72.9932 3.14211H74.885L71.5757 15.4709L67.4001 6.59722L63.2244 15.4709L59.8373 3.14211H61.8058L63.6975 10.523L67.4001 2.90576L71.0247 10.523ZM116.564 23.7153H116.485L114.593 31.0972H112.704L116.013 18.7684L120.189 27.7208L124.365 18.7684L127.752 31.0972H125.783L123.891 23.7153H123.812L120.189 31.4113L116.564 23.7153ZM117.588 39.892L115.697 47.2739H113.728L117.037 34.9452L121.292 43.8188L125.468 34.9441L128.777 47.2729H126.807L124.915 39.892L121.292 47.5092L117.588 39.892ZM91.1156 35.4158C92.2176 35.4158 93.4784 35.4158 94.4237 35.9662C95.448 36.5157 96.0789 37.6933 96.0789 38.7932C96.0789 40.5202 94.8969 41.9342 93.1629 42.0907L96.9453 47.2739H94.7392L91.1955 42.2483H89.8537V47.2739H87.8842V35.4158H91.1156ZM89.8548 40.6778H90.7212C92.2975 40.6778 94.1882 40.7555 94.1882 38.8709C94.1882 36.9863 92.2176 37.0651 90.6424 37.0651H89.8537L89.8548 40.6778ZM97.8118 3.14108C98.9149 3.14108 100.176 3.14108 101.12 3.69153C102.145 4.24095 102.697 5.41857 102.697 6.51844C102.697 8.24651 101.594 9.65946 99.7824 9.816L103.643 14.9992H101.436L97.8118 9.97356H96.5521V14.9992H94.5815V3.14108H97.8118ZM96.5521 8.40305H97.4185C98.9938 8.40305 100.806 8.48183 100.806 6.5962C100.806 4.71159 98.836 4.79139 97.3397 4.79139H96.551L96.5521 8.40305ZM120.661 13.3499H121.764C124.363 13.3499 126.806 12.4076 126.806 9.03126C126.806 5.57614 124.363 4.79037 121.764 4.79037H120.661V13.3499ZM118.69 3.14211H121.921C125.703 3.14211 128.776 4.94691 128.776 9.03126C128.776 13.1136 125.782 14.9992 121.921 14.9992H118.69V3.14211ZM146.976 29.056C146.345 29.4479 145.636 29.6054 144.77 29.6054C142.169 29.6054 140.357 27.641 140.357 25.207C140.357 22.8517 141.934 20.7318 144.77 20.7318C145.636 20.7318 146.345 20.8883 146.976 21.2024L147.921 19.7895C146.951 19.2723 145.869 19.0023 144.77 19.0037C141.303 19.0037 138.389 21.7529 138.389 25.207C138.389 28.6631 141.303 31.3325 144.77 31.3325C145.952 31.3325 147.054 31.0972 148 30.5477L146.976 29.056ZM63.2244 29.056C62.5935 29.4479 61.8847 29.6054 61.0971 29.6054C58.4178 29.6054 56.6059 27.641 56.6059 25.207C56.6059 22.8517 58.1812 20.7318 61.0971 20.7318C61.8847 20.7318 62.5935 20.8883 63.2244 21.2024L64.2486 19.7895C63.3032 19.3189 62.2002 19.0037 61.0971 19.0037C57.5513 19.0037 54.7163 21.7529 54.7163 25.207C54.7163 28.6631 57.5513 31.3325 61.0971 31.3325C62.1991 31.3325 63.3032 31.0972 64.2486 30.5477L63.2244 29.056ZM108.212 25.208C108.212 22.8517 106.636 20.7318 103.8 20.7318C100.885 20.7318 99.3092 22.8517 99.3092 25.208C99.3092 27.642 101.121 29.6044 103.8 29.6044C106.4 29.6044 108.212 27.642 108.212 25.208ZM110.182 25.208C110.182 28.6631 107.266 31.3335 103.8 31.3335C100.255 31.3335 97.4185 28.6631 97.4185 25.208C97.4185 21.7529 100.256 19.0037 103.799 19.0037C107.266 19.0037 110.182 21.7519 110.182 25.208Z" fill="black"/>
</g>
</svg>
