<?xml version="1.0" encoding="UTF-8"?>
<svg xmlns="http://www.w3.org/2000/svg" xmlns:xlink="http://www.w3.org/1999/xlink" width="68px" height="68px" viewBox="0 0 68 68" version="1.1">
<g id="surface1">
<rect x="0" y="0" width="68" height="68" style="fill:#de141b;fill-opacity:1;stroke:none;"/>
<path style=" stroke:none;fill-rule:nonzero;fill:rgb(100%,100%,100%);fill-opacity:1;" d="M 51.71875 33.710938 C 50.554688 33.324219 48.933594 32.917969 48.28125 32.707031 C 47.84375 32.558594 47.648438 32.285156 47.648438 31.929688 C 47.648438 31.453125 48.230469 31.15625 48.929688 31.121094 C 50.101562 31.15625 50.429688 31.792969 50.492188 32.28125 L 54.507812 32.28125 C 54.542969 29.53125 52.242188 27.671875 48.929688 27.671875 C 46.488281 27.671875 44.816406 28.597656 44.007812 29.945312 C 43.097656 28.550781 41.308594 27.671875 39.070312 27.671875 C 36.722656 27.671875 35.089844 28.578125 34.25 29.84375 C 33.289062 28.597656 31.695312 27.808594 29.773438 27.808594 L 23.265625 27.808594 L 23.265625 29.910156 C 22.355469 28.519531 20.582031 27.671875 18.355469 27.671875 C 14.933594 27.671875 13.066406 29.558594 12.890625 31.738281 C 12.890625 33.097656 13.519531 34.292969 14.546875 35.167969 C 15.128906 35.671875 15.84375 36.066406 16.644531 36.328125 C 17.921875 36.78125 18.902344 37.085938 19.242188 37.234375 C 19.898438 37.511719 20.308594 37.6875 20.308594 38.289062 C 20.308594 38.945312 19.527344 39.226562 18.765625 39.253906 C 17.710938 39.238281 16.644531 38.71875 16.664062 37.632812 L 12.429688 37.628906 C 12.65625 40.433594 15.421875 42.597656 18.691406 42.660156 C 20.457031 42.636719 22.140625 42.136719 23.261719 41.105469 L 23.265625 42.429688 L 27.433594 42.429688 L 27.433594 38.527344 L 27.4375 37.828125 L 29.886719 37.832031 C 32.039062 37.796875 33.765625 36.714844 34.636719 35.167969 C 34.703125 35.046875 34.765625 34.921875 34.820312 34.796875 C 34.949219 34.929688 35.074219 35.054688 35.210938 35.167969 C 35.808594 35.675781 36.542969 36.0625 37.363281 36.328125 C 38.640625 36.78125 39.621094 37.085938 39.960938 37.234375 C 40.617188 37.511719 41.023438 37.6875 41.023438 38.289062 C 41.023438 38.945312 40.25 39.226562 39.484375 39.253906 C 38.429688 39.238281 37.363281 38.71875 37.382812 37.632812 L 33.148438 37.628906 C 33.371094 40.433594 36.144531 42.597656 39.40625 42.660156 C 41.390625 42.636719 43.21875 42.0625 44.40625 40.636719 C 45.566406 41.847656 46.960938 42.625 48.898438 42.660156 C 51.984375 42.625 55.164062 41.132812 55.21875 37.859375 C 55.210938 36.824219 54.921875 35.898438 54.289062 35.167969 C 53.71875 34.507812 52.878906 34.003906 51.71875 33.710938 Z M 23.265625 33.277344 L 23.261719 34.730469 C 22.730469 34.292969 22.03125 33.9375 21.144531 33.710938 C 19.980469 33.324219 18.359375 32.917969 17.703125 32.707031 C 17.265625 32.558594 17.070312 32.285156 17.070312 31.929688 C 17.070312 31.453125 17.660156 31.15625 18.355469 31.121094 C 19.527344 31.15625 19.851562 31.792969 19.917969 32.28125 L 23.265625 32.28125 Z M 29.660156 34.382812 L 27.433594 34.382812 L 27.433594 31.257812 L 29.660156 31.257812 C 30.507812 31.257812 31.183594 31.960938 31.183594 32.824219 C 31.183594 33.6875 30.507812 34.382812 29.660156 34.382812 Z M 49.339844 39.253906 C 48.289062 39.238281 47.21875 38.71875 47.238281 37.632812 L 45.347656 37.628906 C 45.300781 36.6875 45.011719 35.847656 44.425781 35.167969 C 43.863281 34.507812 43.023438 34.003906 41.867188 33.710938 C 40.699219 33.324219 39.082031 32.917969 38.425781 32.707031 C 37.988281 32.558594 37.789062 32.285156 37.789062 31.929688 C 37.789062 31.453125 38.378906 31.15625 39.078125 31.121094 C 40.246094 31.15625 40.570312 31.792969 40.632812 32.28125 L 43.46875 32.28125 C 43.617188 33.414062 44.214844 34.410156 45.109375 35.167969 C 45.699219 35.671875 46.417969 36.066406 47.21875 36.328125 C 48.496094 36.78125 49.476562 37.085938 49.816406 37.234375 C 50.476562 37.511719 50.882812 37.6875 50.882812 38.289062 C 50.882812 38.945312 50.101562 39.226562 49.339844 39.253906 Z M 49.339844 39.253906 "/>
<path style=" stroke:none;fill-rule:nonzero;fill:rgb(100%,100%,100%);fill-opacity:1;" d="M 55.6875 30.164062 C 55.109375 30.164062 54.648438 30.628906 54.648438 31.199219 C 54.648438 31.773438 55.109375 32.238281 55.6875 32.238281 C 56.253906 32.238281 56.722656 31.773438 56.722656 31.199219 C 56.722656 30.628906 56.253906 30.164062 55.6875 30.164062 Z M 55.6875 32.113281 C 55.183594 32.113281 54.773438 31.707031 54.773438 31.199219 C 54.773438 30.695312 55.183594 30.289062 55.6875 30.289062 C 56.1875 30.289062 56.597656 30.695312 56.597656 31.199219 C 56.597656 31.707031 56.1875 32.113281 55.6875 32.113281 Z M 55.6875 32.113281 "/>
<path style=" stroke:none;fill-rule:nonzero;fill:rgb(100%,100%,100%);fill-opacity:1;" d="M 56.21875 30.929688 C 56.21875 30.828125 56.175781 30.726562 56.089844 30.675781 C 56.003906 30.625 55.902344 30.621094 55.804688 30.621094 L 55.300781 30.621094 L 55.300781 31.78125 L 55.441406 31.78125 L 55.441406 31.246094 L 55.703125 31.246094 L 56.03125 31.78125 L 56.203125 31.78125 L 55.851562 31.246094 C 56.054688 31.234375 56.21875 31.152344 56.21875 30.929688 Z M 55.65625 31.132812 L 55.441406 31.132812 L 55.441406 30.722656 L 55.773438 30.722656 C 55.917969 30.722656 56.078125 30.742188 56.078125 30.921875 C 56.078125 31.160156 55.820312 31.132812 55.65625 31.132812 Z M 55.65625 31.132812 "/>
</g>
</svg>
