<svg width="133" height="40" viewBox="0 0 133 40" fill="none" xmlns="http://www.w3.org/2000/svg">
<path d="M16.6603 19.6844L16.313 19.3357C16.0509 19.0739 15.6002 19.2593 15.6002 19.6307V24.6106C15.6002 24.8408 15.7886 25.0277 16.0194 25.0277H21.0002C21.3713 25.0277 21.5589 24.5778 21.2945 24.3157C21.2165 24.2375 21.1727 24.1315 21.1727 24.021C21.1727 23.9105 21.2165 23.8045 21.2945 23.7263L26.5926 18.4138C26.7552 18.2514 26.7552 17.9877 26.5926 17.8241L26.11 17.3432C25.8478 17.0814 26.0347 16.6315 26.405 16.6315H31.3831C31.6132 16.6315 31.8015 16.8184 31.8015 17.0486V22.0288C31.8015 22.3998 31.3495 22.586 31.0873 22.3238L30.7511 21.9883C30.5863 21.8209 30.3241 21.8209 30.1624 21.9883L21.2308 30.916C21.0685 31.0778 20.8048 31.0778 20.6402 30.916L9.71274 19.988C9.6737 19.9492 9.64271 19.9032 9.62156 19.8524C9.60042 19.8016 9.58953 19.7472 9.58953 19.6922C9.58953 19.6372 9.60042 19.5828 9.62156 19.532C9.64271 19.4812 9.6737 19.4352 9.71274 19.3964L24.8404 4.26912C25.0023 4.10634 25.0023 3.84068 24.8404 3.67846L21.2833 0.121552C21.2047 0.0436863 21.0986 0 20.988 0C20.8773 0 20.7712 0.0436863 20.6926 0.121552L1.1105 19.7058C0.948193 19.8687 0.948193 20.1344 1.1105 20.2965L20.6926 39.8786C20.855 40.0405 21.1215 40.0405 21.2833 39.8786L40.8647 20.2965C41.0265 20.1337 41.0265 19.8694 40.8647 19.7071L29.3443 8.18656C29.1832 8.02449 28.9182 8.02449 28.7549 8.18656L17.2518 19.6846C17.2131 19.7236 17.167 19.7546 17.1163 19.7758C17.0655 19.7969 17.0111 19.8078 16.9561 19.8078C16.9011 19.8078 16.8467 19.7969 16.7959 19.7758C16.7452 19.7546 16.6991 19.7236 16.6604 19.6846L16.6603 19.6844ZM107.052 24.6393C106.547 24.6393 106.112 24.8202 105.746 25.1839C105.386 25.548 105.202 25.9778 105.202 26.4754C105.202 27.2341 105.587 27.8242 106.351 28.2458C107.189 28.4747 107.863 28.3258 108.37 27.8069C108.737 27.4406 108.917 27.0015 108.917 26.4897C108.917 25.9718 108.737 25.5388 108.37 25.1841C108.007 24.8226 107.57 24.642 107.051 24.642L107.052 24.6397V24.6393ZM77.2951 10.5632H75.9144C75.318 10.5632 74.833 11.0446 74.833 11.641V12.4111C73.3644 10.8837 71.7014 10.1196 69.8442 10.1196C67.6994 10.1196 65.9097 10.9178 64.4827 12.5097C63.0516 14.1017 62.3389 16.0916 62.3389 18.4807C62.3389 20.9108 63.0516 22.9395 64.4785 24.5654C65.9213 26.1582 67.7405 26.9543 69.9441 26.9543C71.6867 26.9543 73.3175 26.2428 74.8332 24.8234V26.346C74.8332 27.0856 75.4344 27.6868 76.1729 27.6868H78.5302V11.7972C78.5302 11.1174 77.9761 10.5632 77.2951 10.5632ZM73.8058 22.2574C72.9657 23.1955 71.8658 23.6639 70.5015 23.6639C69.2236 23.6639 68.165 23.179 67.3279 22.2092C66.508 21.2511 66.0993 20.0044 66.0993 18.4783C66.0993 17.0508 66.5199 15.8485 67.3592 14.879C68.2092 13.9185 69.2673 13.4408 70.533 13.4408C71.8747 13.4408 72.9637 13.9141 73.8038 14.8672C74.6442 15.8369 75.0644 17.0673 75.0644 18.5618C75.0644 20.0564 74.6442 21.2866 73.8038 22.2587L73.8061 22.2575L73.8058 22.2574ZM62.3377 13.2518V11.6763C62.3377 11.0614 61.8399 10.566 61.2246 10.566H59.7696C59.1566 10.566 58.6579 11.059 58.6579 11.6763V12.3645C57.3271 10.869 55.6586 10.1198 53.6521 10.1198C51.362 10.1198 49.5168 10.9838 48.1219 12.7048C46.8237 14.3273 46.175 16.3032 46.175 18.6264C46.175 21.0144 46.8745 23.0067 48.2711 24.5973C49.6562 26.1717 51.4332 26.9524 53.6039 26.9524C55.5101 26.9524 57.1962 26.2082 58.6578 24.7135V26.9384C58.6578 30.2442 57.3114 31.8972 54.6185 31.8972C53.1565 31.8972 52.0459 31.3995 51.2827 30.4064C51.0881 30.155 50.9265 29.8405 50.798 29.4648C50.6176 28.9388 50.1175 28.589 49.5633 28.589H48.1685C47.4651 28.589 46.9424 29.2582 47.1203 29.9391C47.5018 31.3877 48.2383 32.5664 49.335 33.4785C50.7089 34.6246 52.4605 35.1988 54.5856 35.1988C57.1043 35.1988 59.0842 34.3676 60.5248 32.7122C61.288 31.8505 61.7986 30.8197 62.061 29.62C62.1485 29.1856 62.217 28.6798 62.2653 28.1056C62.3133 27.535 62.3372 26.8728 62.3372 26.1192V23.8041C61.3073 22.319 60.7889 20.545 60.7889 18.479C60.7889 16.4491 61.3062 14.7104 62.3372 13.2535V13.2523L62.3377 13.2518ZM57.6757 22.1318C56.8582 23.1531 55.7475 23.6637 54.3387 23.6637C52.9318 23.6637 51.8306 23.1563 51.0329 22.1411C50.3038 21.2161 49.9385 20.0255 49.9385 18.5769C49.9385 17.1035 50.3036 15.9038 51.0329 14.9776C51.8419 13.9432 52.9419 13.4257 54.3387 13.4257C55.6467 13.4257 56.7214 13.8998 57.5601 14.8473C58.3893 15.7736 58.8055 17.0113 58.8055 18.562C58.8055 20.0118 58.4281 21.1999 57.6756 22.1296V22.1321L57.6757 22.1318ZM92.9347 10.575V10.5633H85.3014V5.88963C85.3014 5.28864 84.8155 4.8014 84.2132 4.8014H82.7232C82.1151 4.8014 81.6218 5.29448 81.6218 5.90267V10.5634H80.0503V13.9962H81.6198V27.6848H83.7187C83.9263 27.6852 84.132 27.6447 84.324 27.5654C84.5159 27.4862 84.6903 27.3698 84.8372 27.2229C84.984 27.0761 85.1004 26.9017 85.1797 26.7098C85.259 26.5179 85.2996 26.3122 85.2992 26.1045V13.9984H89.0736C89.3696 13.4301 89.7351 12.9008 90.1618 12.4228C90.9438 11.5705 91.8687 10.953 92.9324 10.575H92.9349H92.9347ZM111.716 4.80132C111.063 4.80132 110.502 5.03618 110.032 5.50574C109.565 5.97402 109.328 6.53174 109.328 7.17392C109.328 7.85155 109.563 8.41958 110.032 8.89282C110.502 9.3611 111.07 9.59484 111.735 9.59484C112.4 9.59484 112.96 9.36118 113.417 8.89146C113.885 8.41958 114.123 7.85619 114.123 7.19048C114.123 6.52702 113.888 5.9637 113.418 5.50822C112.947 5.03634 112.381 4.80132 111.716 4.80132ZM112.461 12.3664H111.127C110.442 12.3664 109.885 12.9207 109.885 13.6085V25.2943C110.166 25.6243 110.3 26.0129 110.3 26.4648C110.3 26.9167 110.166 27.3099 109.885 27.6423V28.2999H112.254C112.979 28.2999 113.566 27.7116 113.566 26.9848V13.4677C113.566 12.8594 113.071 12.3664 112.46 12.3664H112.461ZM129.76 14.6231C128.102 12.9993 126.084 12.1869 123.707 12.1869C121.34 12.1869 119.333 12.9923 117.687 14.6089C116.041 16.2219 115.217 18.1802 115.217 20.4811C115.217 22.9231 116.022 24.9518 117.637 26.567C119.253 28.2014 121.256 29.0195 123.641 29.0195C126.05 29.0195 128.085 28.2188 129.744 26.6151C131.387 24.9985 132.214 23.0004 132.214 20.6114C132.214 18.2435 131.395 16.2476 129.76 14.6205V14.6231ZM127.156 24.3412C126.297 25.2698 125.146 25.7289 123.707 25.7289C122.276 25.7289 121.127 25.2628 120.253 24.3223C119.403 23.3974 118.977 22.1342 118.977 20.5446C118.977 19.063 119.416 17.8514 120.288 16.9145C121.159 15.9777 122.299 15.5068 123.707 15.5068C125.133 15.5068 126.285 15.9777 127.156 16.9145C128.018 17.8396 128.45 19.0795 128.45 20.6244C128.45 22.1764 128.018 23.4114 127.156 24.3387V24.3412Z" fill="#DE5959"/>
<path d="M94.3114 23.6982C93.5527 22.9303 93.1292 21.8832 93.0315 20.5754H103.581C104.062 20.5754 104.459 20.1903 104.466 19.7102C104.466 17.0769 103.79 15.0247 102.439 13.5406C101.073 12.0476 99.2183 11.3008 96.875 11.3008C94.5552 11.3008 92.6888 12.0709 91.2825 13.6066C89.8855 15.1679 89.188 17.2058 89.188 19.7253C89.188 22.2659 89.9089 24.3062 91.3458 25.842C92.3506 26.9102 93.5823 27.6027 95.0438 27.9256C95.6567 28.0699 96.2931 28.145 96.9351 28.1355C99.5566 28.1897 101.835 28.2436 104.456 28.2977L104.459 27.9137C104.139 27.5652 103.978 27.1449 103.978 26.654C103.978 26.1775 104.146 25.7677 104.473 25.4133L104.475 24.9472C102.407 24.8955 97.3988 24.8461 97.1992 24.8461C96.0253 24.8461 95.0601 24.467 94.3113 23.7005V23.6982H94.3114ZM93.7993 16.3397C94.0309 15.9804 94.3044 15.6728 94.6272 15.4169C94.95 15.1575 95.3047 14.9637 95.6991 14.8276C96.0911 14.6914 96.5114 14.6232 96.9597 14.6232C98.9205 14.6232 100.158 15.6035 100.674 17.5654H93.2772C93.3978 17.1085 93.5717 16.7 93.7993 16.3396V16.3397Z" fill="#DE5959"/>
</svg>
