<svg width="135" height="40" viewBox="0 0 135 40" fill="none" xmlns="http://www.w3.org/2000/svg">
<g clip-path="url(#clip0_626_2458)">
<path d="M50.259 9.97049V21.257H38.9863V11.4279C38.9863 10.6201 38.3275 9.96484 37.5155 9.96484H33.6992V36.9836C33.6992 37.7914 34.358 38.4467 35.1701 38.4467H38.9863V25.844H50.2647V36.978C50.2533 37.7858 50.9007 38.4523 51.7128 38.4636H51.7355H55.5517V11.4279C55.5517 10.6201 54.893 9.96484 54.0809 9.96484H50.259V9.97049ZM72.6453 17.0316V30.5721C72.6567 31.8036 72.0093 32.9503 70.9416 33.583C67.9545 35.3002 64.8595 33.148 64.8595 30.3236V18.4947C64.8595 17.6869 64.2007 17.0316 63.3887 17.0316H59.5724V30.8094C59.5838 35.2494 63.1956 38.8421 67.6592 38.8647H69.8286C74.2979 38.8534 77.921 35.2494 77.9324 30.8037V18.4947C77.9324 17.6869 77.2736 17.0316 76.4615 17.0316H72.6453Z" fill="#2483FF"/>
<path d="M130.385 38.4632H134.201V19.2795C134.201 18.4717 133.542 17.8164 132.73 17.8164H128.914V36.9888C128.908 37.7966 129.561 38.4576 130.374 38.4632H130.385Z" fill="#2483FF"/>
<path d="M134.277 13.9797C134.9 12.4837 134.186 10.7686 132.682 10.149C131.178 9.52931 129.454 10.2397 128.831 11.7357C128.208 13.2316 128.922 14.9467 130.426 15.5663C131.93 16.186 133.654 15.4756 134.277 13.9797Z" fill="#2483FF"/>
<path d="M91.5727 17.0205C86.0357 17.0205 81.5039 20.9578 81.5039 26.4655V29.4425C81.5039 34.9502 86.0357 38.8649 91.5727 38.8649C97.1097 38.8649 101.641 34.9502 101.641 29.4425V26.4655C101.647 20.9578 97.1153 17.0205 91.5727 17.0205ZM96.3317 29.7984C96.3317 32.4025 94.1907 34.1367 91.567 34.1367C88.9433 34.1367 86.8081 32.4025 86.8081 29.7984V26.0814C86.8081 23.4772 88.949 21.743 91.567 21.743C94.185 21.743 96.3317 23.4772 96.3317 26.0814V29.7984Z" fill="#2483FF"/>
<path d="M115.285 17.0204C113.627 17.0091 111.992 17.382 110.498 18.0994V11.4562C110.498 10.6484 109.839 9.99316 109.027 9.99316H105.211V29.4424C105.211 34.9501 109.743 38.8648 115.28 38.8648C120.817 38.8648 125.349 34.9501 125.349 29.4424V26.4654C125.354 20.9577 120.834 17.0204 115.285 17.0204ZM120.05 29.7983C120.05 32.4024 117.909 34.1367 115.285 34.1367C112.667 34.1367 110.526 32.4024 110.526 29.7983V26.0813C110.526 23.4771 112.667 21.7429 115.285 21.7429C117.903 21.7429 120.05 23.4771 120.05 26.0813V29.7983Z" fill="#2483FF"/>
<path d="M17.7166 12.3033C17.7166 6.56398 14.9055 1.62117 12.7646 0.0168793C12.7646 0.0168793 12.5999 -0.0735034 12.6169 0.158102C12.4409 11.2469 6.74491 14.2522 3.61582 18.2968C-3.60777 27.6401 3.10472 37.8816 9.9535 39.774C13.7697 40.836 9.06759 37.8985 8.45994 31.7017C7.716 24.2225 17.7166 18.5058 17.7166 12.3033Z" fill="#2483FF"/>
<path d="M20.9989 16.0825C20.9534 16.0543 20.891 16.0317 20.8512 16.1051C20.732 17.5004 19.3009 20.483 17.4836 23.2284C11.322 32.5265 14.8316 37.0117 16.8078 39.4238C17.955 40.8191 16.8078 39.4238 19.67 37.9946C23.208 35.8593 25.5023 32.165 25.843 28.0638C26.4052 21.4546 22.4186 17.2914 20.9989 16.0825Z" fill="#2483FF"/>
</g>
<defs>
<clipPath id="clip0_626_2458">
<rect width="134" height="40" fill="#2483FF" transform="translate(0.5)"/>
</clipPath>
</defs>
</svg>
