<svg width="172" height="40" viewBox="0 0 172 40" fill="none" xmlns="http://www.w3.org/2000/svg">
<path fill-rule="evenodd" clip-rule="evenodd" d="M24.2697 31.85L12.5921 20L24.2697 8.15003L31.6322 15.6212C32.2561 16.2544 33.1024 16.6101 33.9848 16.6101C34.8672 16.6101 35.7134 16.2544 36.3373 15.6212C36.9613 14.988 37.3118 14.1293 37.3118 13.2339C37.3118 12.3385 36.9613 11.4797 36.3373 10.8466L26.6345 0.975728C26.0017 0.350111 25.1531 0 24.2697 0C23.3862 0 22.5377 0.350111 21.9049 0.975728L7.88692 15.2254V6.76465C7.92641 6.29689 7.86971 5.82592 7.72041 5.38157C7.57111 4.93723 7.33246 4.52919 7.0196 4.18335C6.70674 3.83751 6.32648 3.5614 5.90294 3.37252C5.4794 3.18364 5.02181 3.08611 4.55917 3.08611C4.09654 3.08611 3.63895 3.18364 3.21541 3.37252C2.79187 3.5614 2.41161 3.83751 2.09875 4.18335C1.78589 4.52919 1.54725 4.93723 1.39795 5.38157C1.24865 5.82592 1.19194 6.29689 1.23143 6.76465V33.2354C1.19194 33.7031 1.24865 34.1741 1.39795 34.6184C1.54725 35.0628 1.78589 35.4708 2.09875 35.8166C2.41161 36.1625 2.79187 36.4386 3.21541 36.6275C3.63895 36.8164 4.09654 36.9139 4.55917 36.9139C5.02181 36.9139 5.4794 36.8164 5.90294 36.6275C6.32648 36.4386 6.70674 36.1625 7.0196 35.8166C7.33246 35.4708 7.57111 35.0628 7.72041 34.6184C7.86971 34.1741 7.92641 33.7031 7.88692 33.2354V24.7746L21.9049 39.0243C22.5377 39.6499 23.3862 40 24.2697 40C25.1531 40 26.0017 39.6499 26.6345 39.0243L36.3373 29.1534C36.9613 28.5203 37.3118 27.6615 37.3118 26.7661C37.3118 25.8707 36.9613 25.012 36.3373 24.3788C35.7134 23.7456 34.8672 23.3899 33.9848 23.3899C33.1024 23.3899 32.2561 23.7456 31.6322 24.3788L24.2697 31.85ZM22.4141 17.1819C22.9634 16.8095 23.6091 16.6108 24.2697 16.6108C25.1555 16.6108 26.005 16.9678 26.6314 17.6034C27.2577 18.239 27.6096 19.1011 27.6096 20C27.6096 20.6703 27.4137 21.3256 27.0467 21.883C26.6797 22.4403 26.1581 22.8747 25.5478 23.1312C24.9375 23.3878 24.266 23.4549 23.6181 23.3241C22.9702 23.1933 22.3751 22.8706 21.908 22.3966C21.4409 21.9226 21.1228 21.3187 20.9939 20.6612C20.865 20.0038 20.9312 19.3223 21.184 18.703C21.4368 18.0837 21.8649 17.5544 22.4141 17.1819ZM101.677 20.0001C101.677 18.8621 101.677 17.922 101.725 17.1551C101.745 16.5419 101.802 15.9305 101.896 15.3244C102.237 13.2711 103.773 12.0836 105.748 12.0836C107.016 12.0836 108.186 12.5784 108.917 13.6669C109.272 14.171 109.521 14.7436 109.649 15.3492C109.673 15.3986 109.697 15.4481 109.77 15.4481H114.207C114.281 15.4481 114.305 15.3986 114.281 15.3244C113.793 12.5537 112.33 10.055 109.77 8.81807C108.492 8.23037 107.102 7.93478 105.699 7.9522C104.532 7.92671 103.371 8.14402 102.289 8.59075C101.208 9.03749 100.228 9.70418 99.4093 10.5498C98.4349 11.5147 97.7718 12.7569 97.5078 14.1122C97.264 15.4481 97.1177 17.4025 97.1177 20.0001C97.1177 22.5977 97.264 24.5521 97.5078 25.888C97.7718 27.2433 98.4349 28.4855 99.4093 29.4504C100.228 30.296 101.208 30.9627 102.289 31.4094C103.371 31.8562 104.532 32.0735 105.699 32.048C107.102 32.0654 108.492 31.7698 109.77 31.1821C112.33 29.9452 113.793 27.4465 114.281 24.6758C114.305 24.6015 114.281 24.5521 114.207 24.5521H109.77C109.697 24.5521 109.673 24.6015 109.649 24.651C109.521 25.2566 109.272 25.8292 108.917 26.3333C108.186 27.4218 107.016 27.9166 105.748 27.9166C103.773 27.9166 102.237 26.7291 101.896 24.6758C101.802 24.0697 101.745 23.4583 101.725 22.8451C101.677 22.0782 101.677 21.1381 101.677 20.0001ZM135.562 19.9993C135.562 18.985 135.537 18.0201 135.513 17.1295C135.497 16.2914 135.415 15.4559 135.269 14.6309C135.142 13.8767 134.912 13.1441 134.587 12.4539C134.24 11.7457 133.778 11.1018 133.221 10.549C132.439 9.72597 131.502 9.06992 130.466 8.61933C129.344 8.15884 128.142 7.9317 126.931 7.95137C125.713 7.93173 124.503 8.15882 123.372 8.61933C122.332 9.07556 121.389 9.73069 120.593 10.549C120.043 11.1025 119.59 11.7466 119.252 12.4539C118.927 13.1441 118.697 13.8767 118.569 14.6309C118.423 15.4559 118.342 16.2914 118.326 17.1295C118.301 18.0199 118.301 18.9844 118.301 19.9983V19.9993V20.0002C118.301 21.0142 118.301 21.9787 118.326 22.869C118.342 23.7071 118.423 24.5426 118.569 25.3676C118.697 26.1218 118.927 26.8544 119.252 27.5446C119.59 28.252 120.043 28.8961 120.593 29.4495C121.389 30.2678 122.332 30.923 123.372 31.3792C124.503 31.8397 125.713 32.0668 126.931 32.0471C128.142 32.0668 129.344 31.8397 130.466 31.3792C131.502 30.9286 132.439 30.2725 133.221 29.4495C133.778 28.8968 134.24 28.2528 134.587 27.5446C134.912 26.8544 135.142 26.1218 135.269 25.3676C135.415 24.5426 135.497 23.7071 135.513 22.869C135.537 21.9784 135.562 21.0136 135.562 19.9993ZM131.003 19.9993C131.003 21.1373 130.978 22.0773 130.93 22.8195C130.909 23.4408 130.852 24.0604 130.759 24.6749C130.685 25.0763 130.562 25.4669 130.393 25.8377C130.243 26.1341 130.055 26.4087 129.833 26.654C129.503 27.052 129.085 27.3655 128.614 27.5694C128.083 27.8027 127.51 27.9207 126.931 27.9157C126.345 27.9205 125.764 27.8026 125.225 27.5694C124.743 27.3723 124.316 27.058 123.982 26.654C123.759 26.4087 123.571 26.1341 123.421 25.8377C123.261 25.4654 123.147 25.075 123.08 24.6749C122.987 24.0604 122.93 23.4408 122.909 22.8195C122.885 22.0773 122.86 21.1373 122.86 19.9993C122.86 18.8613 122.885 17.9212 122.909 17.179C122.93 16.5577 122.987 15.9381 123.08 15.3236C123.147 14.9235 123.261 14.5331 123.421 14.1609C123.571 13.8644 123.759 13.5898 123.982 13.3445C124.316 12.9405 124.743 12.6262 125.225 12.4291C125.764 12.1959 126.345 12.078 126.931 12.0828C127.51 12.0779 128.083 12.1958 128.614 12.4291C129.085 12.633 129.503 12.9466 129.833 13.3445C130.055 13.5898 130.243 13.8644 130.393 14.1609C130.562 14.5316 130.685 14.9222 130.759 15.3236C130.852 15.9381 130.909 16.5577 130.93 17.179C130.978 17.9212 131.003 18.8613 131.003 19.9993ZM171.886 8.56981C171.889 8.51579 171.882 8.46164 171.864 8.41073C171.846 8.35981 171.817 8.31321 171.781 8.27379C171.744 8.23437 171.7 8.20298 171.651 8.18156C171.602 8.16014 171.549 8.14915 171.496 8.14925H167.717C167.612 8.15557 167.512 8.20265 167.44 8.28084C167.367 8.35904 167.327 8.46243 167.327 8.56981V22.671L158.161 8.27295C158.133 8.22802 158.092 8.19237 158.045 8.17039C157.997 8.14841 157.944 8.14106 157.892 8.14925H154.406C154.355 8.14925 154.304 8.15949 154.257 8.17938C154.21 8.19927 154.167 8.22843 154.13 8.26518C154.094 8.30194 154.065 8.34557 154.046 8.3936C154.026 8.44162 154.016 8.4931 154.016 8.54508V31.4534C154.016 31.5583 154.057 31.659 154.13 31.7333C154.204 31.8075 154.303 31.8492 154.406 31.8492H158.161C158.266 31.8494 158.368 31.8085 158.445 31.7349C158.522 31.6613 158.569 31.5606 158.575 31.4534V17.3027L167.742 31.7255C167.769 31.7704 167.81 31.8061 167.857 31.828C167.905 31.85 167.958 31.8574 168.01 31.8492H171.496C171.599 31.8492 171.699 31.8075 171.772 31.7333C171.845 31.659 171.886 31.5583 171.886 31.4534V8.56981ZM146.555 8.27414C146.633 8.35301 146.677 8.45997 146.677 8.57151V31.4303C146.677 31.5419 146.633 31.6488 146.555 31.7277C146.478 31.8066 146.372 31.8509 146.262 31.8509H142.508C142.402 31.8446 142.303 31.7975 142.23 31.7193C142.158 31.6411 142.118 31.5377 142.118 31.4303V8.57151C142.118 8.46413 142.158 8.36074 142.23 8.28255C142.303 8.20435 142.402 8.15727 142.508 8.15096H146.262C146.372 8.15096 146.478 8.19527 146.555 8.27414ZM54.9086 8.39485C54.9282 8.44287 54.9383 8.49435 54.9383 8.54633V18.1945L63.1297 8.22472C63.146 8.20091 63.1679 8.18163 63.1935 8.16867C63.219 8.1557 63.2474 8.14946 63.276 8.1505H68.2737C68.5175 8.1505 68.5662 8.32368 68.4199 8.52159L60.9843 17.5761L69.0782 31.5288C69.2001 31.702 69.1513 31.8504 68.9563 31.8504H64.373C64.3293 31.8495 64.2864 31.8378 64.2482 31.8162C64.2099 31.7947 64.1774 31.764 64.1536 31.7267L57.9613 21.0642L54.9383 24.7256V31.4546C54.9383 31.5066 54.9282 31.5581 54.9086 31.6061C54.889 31.6541 54.8603 31.6977 54.824 31.7345C54.7878 31.7713 54.7448 31.8004 54.6975 31.8203C54.6502 31.8402 54.5995 31.8504 54.5482 31.8504H50.7938C50.688 31.8506 50.5861 31.8097 50.5091 31.7361C50.432 31.6625 50.3856 31.5618 50.3794 31.4546V8.54633C50.3856 8.43913 50.432 8.3384 50.5091 8.26481C50.5861 8.19121 50.688 8.15032 50.7938 8.1505H54.5482C54.5995 8.1505 54.6502 8.16074 54.6975 8.18063C54.7448 8.20053 54.7878 8.22968 54.824 8.26644C54.8603 8.30319 54.889 8.34683 54.9086 8.39485ZM82.3202 27.9173C80.2236 27.9173 78.2977 25.9382 78.2977 23.5633V8.5467C78.2977 8.44173 78.2566 8.34104 78.1834 8.26681C78.1103 8.19258 78.011 8.15088 77.9076 8.15088H74.1288C74.0254 8.15088 73.9262 8.19258 73.853 8.26681C73.7799 8.34104 73.7388 8.44173 73.7388 8.5467V23.5138C73.7388 28.7337 77.5907 32.0487 82.3202 32.0487C87.0498 32.0487 90.926 28.7337 90.926 23.5138V8.5467C90.9198 8.43951 90.8734 8.33878 90.7963 8.26518C90.7193 8.19159 90.6174 8.15069 90.5116 8.15088H86.7572C86.6538 8.15088 86.5545 8.19258 86.4814 8.26681C86.4082 8.34104 86.3671 8.44173 86.3671 8.5467V23.5633C86.3671 25.9382 84.4412 27.9173 82.3202 27.9173Z" fill="#23AF91"/>
</svg>
