<svg width="160" height="40" viewBox="0 0 160 40" fill="none" xmlns="http://www.w3.org/2000/svg">
<path fill-rule="evenodd" clip-rule="evenodd" d="M0.625558 0.784528C4.61803 5.68415 9.00166 11.8396 9.71069 12.8352C9.7485 12.8883 9.77586 12.9267 9.79216 12.9494C10.1701 13.4777 10.4821 13.8703 10.7191 14.1685L10.7191 14.1686C11.2452 14.8305 11.4012 15.027 11.0874 15.2074C10.8342 15.3529 10.573 15.4009 10.3124 15.4009C10.0176 15.4009 9.6855 15.2574 9.44369 15.0254C9.27276 14.8615 8.10322 13.144 6.51064 10.6454C5.29211 8.7336 4.27234 7.14765 4.24452 7.1211C4.1802 7.05968 4.1813 7.06177 6.3864 11.0512C7.77101 13.5563 8.71814 15.4075 8.71814 15.5259C8.71814 15.7668 8.65313 15.8934 8.35921 16.2249C7.86926 16.7777 7.65022 17.3987 7.49212 18.6838C7.31487 20.1245 6.81646 21.1423 5.43519 22.884C4.62665 23.9037 4.49436 24.0905 4.29034 24.5015C4.03337 25.019 3.96269 25.3088 3.93406 25.9623C3.90379 26.6533 3.96274 27.0997 4.17151 27.7602C4.35429 28.3385 4.54505 28.7205 5.03276 29.4843C5.45366 30.1433 5.69601 30.6332 5.69601 30.8248C5.69601 30.9773 5.72479 30.9775 6.377 30.8287C7.9378 30.4722 9.20517 29.8455 9.91796 29.0773C10.3591 28.6018 10.4627 28.3393 10.466 27.6878C10.4682 27.2617 10.4534 27.1725 10.3395 26.9273C10.154 26.5282 9.81641 26.1965 9.07231 25.6822C8.0973 25.0082 7.68087 24.4657 7.56584 23.7195C7.47149 23.1073 7.58096 22.6753 8.12033 21.5323C8.6786 20.3492 8.81695 19.845 8.91054 18.6523C8.97098 17.8818 9.05469 17.578 9.27363 17.3342C9.50198 17.0798 9.70753 16.9937 10.2726 16.9155C11.1939 16.7883 11.7805 16.5473 12.2627 16.098C12.681 15.7083 12.856 15.3327 12.8829 14.7674L12.9033 14.3389L12.6695 14.0633C11.823 13.0653 0.0586434 0 0.0065478 0C-0.00458131 0 0.273985 0.353062 0.625558 0.784528ZM6.17121 26.7442C6.36261 26.4013 6.26092 25.9608 5.94075 25.7455C5.63825 25.5422 5.16834 25.638 5.16834 25.903C5.16834 25.9838 5.21256 26.0427 5.31226 26.0947C5.4801 26.182 5.49228 26.2802 5.36022 26.4808C5.22648 26.6842 5.23727 26.8628 5.39067 26.9842C5.63792 27.18 5.9879 27.0723 6.17121 26.7442ZM11.9321 8.05408C11.5545 7.99485 11.5386 7.9879 11.7163 7.96028C12.0569 7.90732 12.8611 7.9795 13.4153 8.11275C14.7091 8.4237 15.8864 9.2203 17.143 10.6351L17.4769 11.0109L17.9545 10.9333C19.9666 10.6063 22.0135 10.8662 23.7255 11.6659C24.1965 11.8859 24.9391 12.3238 25.0318 12.4363C25.0613 12.4722 25.1157 12.7031 25.1524 12.9494C25.2796 13.8018 25.216 14.4551 24.9581 14.943C24.8179 15.2086 24.81 15.2927 24.9043 15.52C24.9795 15.7013 25.1895 15.8355 25.3974 15.8352C25.8228 15.8346 26.2807 15.1392 26.493 14.1716L26.5772 13.7873L26.7442 13.9785C27.6599 15.0277 28.3793 16.4584 28.5029 17.4768L28.535 17.7423L28.3812 17.501C28.1161 17.0857 27.85 16.8028 27.5091 16.5748C26.8947 16.1637 26.2449 16.0238 24.5243 15.9321C22.9703 15.8493 22.0909 15.7151 21.2188 15.4275C19.7348 14.9384 18.9869 14.2869 17.2243 11.9487C16.4414 10.9101 15.9576 10.3355 15.4762 9.87274C14.3825 8.82129 13.3078 8.26985 11.9321 8.05408ZM25.3823 10.373C25.4214 9.67702 25.5148 9.21799 25.7024 8.79879C25.7767 8.63285 25.8463 8.49704 25.857 8.49704C25.8678 8.49704 25.8355 8.61952 25.7852 8.76919C25.6488 9.17603 25.6264 9.73249 25.7204 10.3799C25.8396 11.2014 25.9076 11.3199 26.7662 12.2073C27.1689 12.6235 27.6374 13.1484 27.8073 13.3738L28.1161 13.7836L27.8073 13.4907C27.4297 13.1326 26.5612 12.4341 26.3694 12.3343C26.2407 12.2673 26.2216 12.2685 26.1423 12.3483C26.0692 12.4219 26.0538 12.5325 26.0436 13.0551C26.0278 13.8697 25.9181 14.3926 25.653 14.9154C25.5097 15.1982 25.487 15.1378 25.6167 14.8187C25.7136 14.5804 25.7234 14.4756 25.7228 13.687C25.7213 12.1025 25.5351 11.7216 24.4441 11.0691C24.1679 10.9038 23.7124 10.6654 23.4321 10.5393C23.1521 10.4132 22.9295 10.3033 22.9375 10.2951C22.9685 10.264 24.0325 10.5781 24.4607 10.7446C25.0977 10.9924 25.2028 11.0245 25.2802 10.9946C25.332 10.9746 25.3571 10.8219 25.3823 10.373ZM11.5274 9.15654C11.4247 10.3798 11.899 12.0162 12.6657 13.0835C13.2601 13.9109 14.1814 14.5538 14.8616 14.6159C15.3069 14.6565 15.4408 14.5156 15.2393 14.2181C14.9596 13.805 14.6155 13.169 14.5245 12.8967C14.468 12.7275 14.345 12.2278 14.2514 11.7863C13.9315 10.2788 13.6172 9.6917 12.8911 9.2458C12.6265 9.08329 12.0614 8.87062 11.7337 8.81019L11.5591 8.77797L11.5274 9.15654ZM24.4524 21.0268C20.8693 19.5682 19.6073 18.302 19.6073 16.1656C19.6073 15.8512 19.6181 15.594 19.6311 15.594C19.6443 15.594 19.7828 15.6978 19.9391 15.8246C20.6657 16.4138 21.4793 16.6655 23.7318 16.9977C25.0571 17.1933 25.803 17.3512 26.4911 17.582C28.678 18.3153 30.0311 19.8035 30.3538 21.8307C30.4475 22.4197 30.3926 23.5242 30.2406 24.1063C30.1205 24.5662 29.7542 25.3948 29.6572 25.4267C29.6302 25.4355 29.6037 25.3312 29.5969 25.1892C29.5601 24.428 29.1797 23.687 28.5408 23.1318C27.8144 22.5007 26.8384 21.9983 24.4524 21.0268ZM21.7639 20.8663C21.8142 21.0178 21.8921 21.3627 21.9369 21.6328C22.2239 23.3598 21.3273 24.7552 19.5833 25.2958C19.3987 25.353 18.6714 25.497 17.9672 25.6155C16.5416 25.8555 15.9053 26.0255 15.2661 26.3368C14.8128 26.5577 14.2639 26.8883 14.2965 26.9212C14.3071 26.9318 14.4105 26.9068 14.5264 26.8657C15.3325 26.5795 16.2296 26.4313 17.5926 26.3597C18.1335 26.3313 18.7487 26.286 18.9598 26.2592C20.174 26.1045 21.0157 25.7315 21.6702 25.058C22.0343 24.6832 22.2514 24.334 22.4264 23.8417C22.5372 23.5293 22.5522 23.4133 22.5531 22.86C22.5541 22.2962 22.5406 22.193 22.4204 21.8462C22.263 21.3915 22.0774 21.0503 21.8423 20.7835L21.6725 20.5908L21.7639 20.8663ZM23.5795 24.5823C23.1033 23.5475 22.9941 22.5485 23.2548 21.6168C23.2828 21.5172 23.3276 21.4357 23.3547 21.4357C23.3817 21.4357 23.4939 21.4972 23.6043 21.5722C23.8236 21.7215 24.2636 21.973 25.4357 22.6192C26.8985 23.4255 27.7325 24.0498 28.2996 24.7633C28.7962 25.388 29.1036 26.0995 29.2514 26.9672C29.3353 27.4587 29.2862 28.6413 29.1615 29.1362C28.7683 30.6967 27.8542 31.9223 26.5506 32.6377C26.3596 32.7423 26.1881 32.8283 26.1695 32.8288C26.151 32.8292 26.2206 32.6503 26.3241 32.4312C26.7627 31.5042 26.8126 30.6025 26.4811 29.599C26.278 28.9845 25.8641 28.2347 25.0283 26.9673C24.0567 25.494 23.8184 25.1018 23.5795 24.5823ZM14.6122 27.9763C13.1053 28.2238 11.4509 29.0302 10.1212 30.1653L9.72536 30.5033L10.0732 30.5583C11.8887 30.8448 12.3775 31.099 13.6368 32.4107C14.3615 33.1653 14.6062 33.3333 15.2073 33.4885C16.0902 33.7163 16.9604 33.2977 17.2589 32.5013C17.3923 32.1455 17.3745 31.5563 17.2215 31.2605C16.8575 30.556 15.7972 30.3283 15.2844 30.8443C14.8573 31.2742 14.9818 31.9217 15.5129 32.033C15.6345 32.0587 15.6311 32.0532 15.4819 31.985C15.2495 31.8787 15.1485 31.7313 15.1472 31.4968C15.1442 30.947 15.7665 30.6383 16.3454 30.9023C16.7693 31.0958 16.9376 31.3485 16.9376 31.7915C16.9376 32.4737 16.3634 32.9877 15.6952 32.9037C15.338 32.8587 14.9012 32.6277 14.6669 32.36C14.0776 31.6862 14.3072 30.6228 15.13 30.2148C15.7565 29.9043 16.5892 29.9808 17.2349 30.4083C17.9768 30.8997 18.2923 31.3487 18.9313 32.8223C19.1395 33.3022 19.4072 33.8423 19.5262 34.0227C20.1316 34.9388 20.8568 35.3882 21.7304 35.3882C22.2123 35.3882 22.5747 35.2992 23.0307 35.069C23.3695 34.8978 23.8499 34.5727 23.8153 34.5378C23.8054 34.528 23.6649 34.5722 23.5029 34.636C22.5491 35.0122 21.5794 34.9863 21.0163 34.5695C20.6617 34.3072 20.3757 33.7845 20.2287 33.1308C20.2032 33.0177 20.1193 32.518 20.042 32.0203C19.8462 30.759 19.6582 30.192 19.2199 29.5413C18.7713 28.8757 17.9091 28.317 16.9451 28.0675C16.3436 27.9118 15.2617 27.8695 14.6122 27.9763ZM12.5016 18.2242C12.6318 17.7382 13.0522 17.2747 13.4847 17.1403C13.7597 17.055 14.3282 17.1095 14.5955 17.2468C15.1134 17.5132 15.4895 18.1197 15.4079 18.5575C15.3083 19.0913 14.4521 19.5185 13.4672 19.5255C12.9641 19.529 12.7783 19.4607 12.5862 19.2013C12.4673 19.0407 12.4222 18.5207 12.5016 18.2242ZM14.4632 17.4372C14.7215 17.5967 14.788 17.8325 14.6361 18.0507C14.5315 18.201 14.2076 18.3438 13.9709 18.3438C13.6153 18.3438 13.2273 18.0885 13.2273 17.8547C13.2273 17.3848 13.9713 17.1333 14.4632 17.4372ZM91.6661 18.7825C90.8626 16.1071 92.1877 13.8879 95.0151 13.1748C95.8259 12.9702 99.4976 13.0625 100.127 13.3034C100.358 13.3917 100.458 13.7305 100.46 14.4269C100.462 14.9753 100.522 15.6414 100.593 15.907C100.701 16.3096 100.638 16.3888 100.214 16.3824C99.8296 16.3764 99.5975 16.1511 99.2733 15.4698C98.7557 14.3816 98.1288 14.0354 96.6682 14.0314C94.8035 14.026 93.4391 15.2828 93.6612 16.8013C93.8059 17.7895 94.7922 18.7618 97.0055 20.0985C99.1115 21.37 100.341 22.4157 100.83 23.3525C102.14 25.8572 101.022 28.5375 98.1039 29.888C96.6061 30.5812 94.0959 30.6528 92.3311 30.0528L91.2009 29.6685V27.8608C91.2009 26.2237 91.2399 26.0528 91.6126 26.0528C91.9245 26.0528 92.0592 26.2592 92.1686 26.9055C92.4409 28.5127 93.661 29.4883 95.3987 29.4883C97.1009 29.4883 98.2908 28.5573 98.7467 26.8692C98.9408 26.15 98.9074 25.8848 98.5223 25.0915C98.0607 24.1403 97.2661 23.5092 94.5671 21.9505C93.0695 21.0855 92.0104 19.929 91.6661 18.7825ZM38.7579 14.2428C38.3896 14.2428 38.2459 14.1224 38.2459 13.8134C38.2459 13.4043 38.3896 13.3839 41.2754 13.3839C43.9539 13.3839 44.2967 13.4243 44.2353 13.732C44.1969 13.9235 43.8267 14.1892 43.4123 14.3225L42.6588 14.5649L42.5945 20.0405C42.5514 23.6942 42.612 25.8018 42.7763 26.3748C43.265 28.079 44.7556 29.059 46.8587 29.059C48.3229 29.059 49.1782 28.7163 50.2527 27.6987C51.4085 26.6047 51.5928 25.5652 51.5892 20.1625C51.5857 14.8334 51.4929 14.3936 50.3496 14.283C49.8293 14.2325 49.655 14.1112 49.655 13.7999C49.655 13.4116 49.8267 13.3839 52.2381 13.3839C54.6778 13.3839 54.8213 13.4078 54.8213 13.8134C54.8213 14.0779 54.6766 14.2441 54.4445 14.2461C53.4476 14.2549 53.4292 14.3498 53.295 20.1933C53.1559 26.2617 53.0258 26.9802 51.7973 28.4667C51.443 28.8955 50.598 29.5182 49.9197 29.8505C48.8144 30.392 48.4627 30.4542 46.5336 30.4507C44.7553 30.447 44.1939 30.361 43.3046 29.9558C42.0066 29.3643 41.1625 28.5988 40.5402 27.4485C40.1058 26.6455 40.0687 26.211 39.9681 20.7705C39.8529 14.5431 39.7971 14.2428 38.7579 14.2428ZM58.9012 14.2428C58.4091 14.2428 58.2655 14.1458 58.2655 13.8134C58.2655 13.4108 58.4031 13.385 60.4719 13.4016L62.6784 13.4192L63.7342 14.6362C64.3144 15.3055 66.2064 17.3993 67.9381 19.2888C69.67 21.1785 71.6583 23.3767 72.3564 24.1738C73.0546 24.9712 73.7118 25.6233 73.8168 25.6233C73.9247 25.6233 73.9785 23.3713 73.94 20.451L73.8721 15.2787L73.2681 14.7608C72.9359 14.4758 72.4276 14.2428 72.1381 14.2428C71.753 14.2428 71.612 14.126 71.612 13.8074C71.612 13.388 71.7219 13.3741 74.5717 13.4316C76.995 13.4806 77.5316 13.5482 77.5316 13.8046C77.5316 13.9873 77.2319 14.1791 76.812 14.2648C76.4165 14.3455 75.9804 14.5233 75.8434 14.6599C75.6666 14.8361 75.5765 17.1155 75.5327 22.5203L75.4709 30.1325H74.8471C74.31 30.1325 73.6707 29.5275 70.2525 25.7843C68.0687 23.3927 65.5195 20.5503 64.5878 19.468C63.6559 18.3855 62.821 17.4917 62.7322 17.4818C62.4823 17.4538 62.5427 27.1248 62.7983 28.0428C62.9976 28.7582 63.1346 28.8813 63.9812 29.1073C64.663 29.2892 64.9388 29.4737 64.9388 29.7477C64.9388 30.0995 64.6789 30.1325 61.9251 30.1325C59.1218 30.1325 58.9114 30.1045 58.9114 29.73C58.9114 29.4558 59.1141 29.287 59.5474 29.2005C60.8618 28.9383 60.9491 28.5222 61.0228 22.1605C61.0641 18.5975 61.0035 16.1045 60.8625 15.5825C60.6148 14.6646 59.9974 14.2428 58.9012 14.2428ZM81.473 14.2428C81.0118 14.2428 80.8683 14.1409 80.8683 13.8134C80.8683 13.4031 81.0118 13.3839 84.0973 13.3839C87.1826 13.3839 87.3263 13.4031 87.3263 13.8134C87.3263 14.1284 87.1826 14.2428 86.788 14.2428C86.4921 14.2428 86.0523 14.44 85.8107 14.6809C85.3843 15.1063 85.3733 15.3178 85.4341 21.8918C85.4932 28.3093 85.5185 28.6807 85.9142 28.9692C86.1442 29.1367 86.5557 29.2737 86.8291 29.2737C87.1826 29.2737 87.3263 29.3975 87.3263 29.7032C87.3263 30.1135 87.1826 30.1325 84.0973 30.1325C81.0853 30.1325 80.8683 30.1055 80.8683 29.7307C80.8683 29.4283 81.0796 29.2948 81.7211 29.1925C82.9949 28.9893 83.06 28.5733 82.9806 21.1502C82.9172 15.2055 82.8899 14.8348 82.4955 14.5473C82.2655 14.3798 81.8055 14.2428 81.473 14.2428ZM103.997 14.2428C103.702 14.2428 103.478 14.0794 103.409 13.8134C103.3 13.3981 103.402 13.3839 106.505 13.3839C109.57 13.3839 109.714 13.4031 109.714 13.8134C109.714 14.1434 109.57 14.2428 109.094 14.2428C107.739 14.2428 107.769 14.4885 109.821 20.104C110.864 22.9625 111.878 25.6778 112.073 26.138L112.427 26.9748L114.071 22.595C116.007 17.4395 116.258 16.4861 115.929 15.5458C115.7 14.8905 114.809 14.2428 114.137 14.2428C113.947 14.2428 113.804 14.0582 113.804 13.8134C113.804 13.4024 113.947 13.3839 117.14 13.3839C120.333 13.3839 120.477 13.4024 120.477 13.8134C120.477 14.119 120.333 14.2428 119.98 14.2428C119.075 14.2428 118.676 14.7243 118.806 15.6596C118.94 16.6225 122.642 26.9707 122.797 26.8158C123.05 26.564 127.15 15.4241 127.15 14.9899C127.15 14.4696 126.785 14.2428 125.949 14.2428C125.572 14.2428 125.428 14.1245 125.428 13.8134C125.428 13.4078 125.572 13.3839 128.011 13.3839C130.202 13.3839 130.594 13.4346 130.594 13.7172C130.594 13.9006 130.326 14.1439 129.998 14.2579C129.26 14.5145 129.075 14.8074 128.149 17.1798C127.743 18.2217 126.47 21.4823 125.322 24.4253C124.173 27.3687 123.184 29.9052 123.124 30.062C123.063 30.219 122.707 30.3473 122.332 30.3473H121.651L120.105 26.3212C119.254 24.107 118.25 21.4837 117.872 20.4917C117.225 18.7918 117.171 18.718 116.928 19.2032C116.786 19.4867 115.764 22.1147 114.657 25.0433L112.645 30.3683L111.894 30.3042L111.143 30.24L108.278 22.7413C106.678 18.5518 105.206 15.0219 104.943 14.7427C104.684 14.4677 104.258 14.2428 103.997 14.2428ZM147.039 14.3339C147.003 14.2523 147.003 13.9592 147.003 13.9592C147.003 13.9592 146.995 13.8535 147.04 13.7971C147.084 13.7409 147.099 13.7394 147.258 13.7243L147.259 13.7241C147.84 13.6688 149.007 13.5757 149.98 13.5332C150.069 13.5293 150.168 13.5248 150.276 13.5199L150.278 13.5198L150.279 13.5197L150.28 13.5197C151.351 13.471 153.267 13.406 154.585 13.4719C157.112 13.5983 158.91 14.8212 159.522 16.8422C160.135 18.863 159.811 20.76 158.976 21.9675C158.141 23.175 156.737 24.2147 154.403 24.147C152.476 24.0912 151.961 23.73 151.549 23.4415C151.462 23.3805 151.379 23.3227 151.289 23.2718V25.849C151.309 27.6067 151.324 28.4508 151.46 28.7633C151.643 29.184 152.057 29.4432 152.864 29.6418C152.864 29.6418 153.229 29.7275 153.323 29.8188C153.417 29.9102 153.417 30.113 153.417 30.113C153.417 30.113 153.437 30.3027 153.361 30.3993C153.285 30.496 153.139 30.4767 153.139 30.4767L149.566 30.4478L147.412 30.4422C147.412 30.4422 147.186 30.4855 147.101 30.3945C147.017 30.3033 147.024 30.1135 147.024 30.1135C147.024 30.1135 147.043 29.909 147.142 29.8175C147.241 29.7258 147.609 29.6235 147.609 29.6235C148.439 29.39 148.8 29.143 148.988 28.6777C149.14 28.3025 149.141 27.6068 149.139 21.9297C149.138 16.5458 149.13 15.5415 149.007 15.2527C148.824 14.8252 148.367 14.7119 147.716 14.5506L147.716 14.5505C147.587 14.5185 147.45 14.4847 147.307 14.4461C147.307 14.4461 147.075 14.4155 147.039 14.3339ZM157.443 18.727C157.443 19.6098 157.427 20.992 156.488 21.8755C155.55 22.759 153.701 23.0008 152.446 22.7548C152.051 22.6773 151.824 22.5578 151.65 22.4657L151.633 22.4565L151.311 22.2872L151.293 19.1853C151.281 17.2418 151.301 15.9756 151.347 15.7946C151.389 14.7698 152.899 14.6423 153.637 14.6803C156.793 14.6803 157.351 17.3427 157.443 18.727ZM137.127 13.5042C137.127 13.5042 136.973 13.5634 136.739 13.6521L135.896 14.0879L135.289 15.6047C134.956 16.4389 134.345 17.9703 133.933 19.0078C133.181 20.8975 132.685 22.139 132.163 23.4348C132.01 23.816 131.546 24.9767 131.133 26.0142C130.72 27.0515 130.307 28.0388 130.215 28.2082C130.2 28.2363 130.184 28.2667 130.167 28.2987C129.936 28.7333 129.534 29.4883 128.826 29.6025C128.826 29.6025 128.436 29.6408 128.292 29.7835C128.147 29.9263 128.161 30.043 128.161 30.043V30.2228C128.161 30.2228 128.174 30.31 128.256 30.3533C128.338 30.3968 128.449 30.3993 128.449 30.3993L131.041 30.3698H133.721C133.721 30.3698 133.91 30.392 133.983 30.3313C134.056 30.2707 134.076 30.1807 134.076 30.1807V29.9913C134.076 29.9913 134.039 29.786 133.933 29.7058C133.827 29.6258 133.429 29.571 133.429 29.571C132.357 29.4298 132.172 28.6177 132.304 27.8873C132.369 27.5285 132.8 26.2012 133.286 24.8648L133.454 24.403L136.261 24.3815C137.806 24.3697 139.139 24.3777 139.224 24.3993C139.346 24.4302 139.517 24.777 140.018 26.0123C140.777 27.884 140.837 28.112 140.669 28.4622C140.659 28.4835 140.648 28.507 140.636 28.5323C140.479 28.871 140.173 29.529 139.401 29.596C139.401 29.596 138.992 29.6102 138.89 29.7327C138.788 29.8553 138.81 29.9963 138.81 29.9963V30.1837C138.81 30.1837 138.837 30.2935 138.89 30.337C138.943 30.3805 139.031 30.3695 139.031 30.3695L141.58 30.3512L145.162 30.351C145.162 30.351 145.303 30.366 145.341 30.312C145.379 30.2578 145.387 30.1942 145.387 30.1942V29.9453C145.387 29.9453 145.372 29.813 145.303 29.74C145.234 29.6672 144.769 29.5902 144.769 29.5902C144.176 29.4943 143.88 29.004 143.66 28.6388C143.604 28.5457 143.553 28.4607 143.503 28.3925C143.401 28.2533 143.037 27.4907 142.751 26.7572C142.466 26.0237 141.822 24.3667 141.321 23.0752C140.82 21.7837 140.12 19.982 139.766 19.0717C139.412 18.1612 138.74 16.4288 138.272 15.222C138.195 15.0239 138.126 14.846 138.065 14.6867L138.064 14.686C137.751 13.8755 137.624 13.5485 137.589 13.5042C137.477 13.3605 137.127 13.5042 137.127 13.5042ZM136.96 18.436C136.847 18.1608 136.648 17.6672 136.518 17.339C136.282 16.7425 136.192 16.6051 136.119 16.7283C136.097 16.7643 135.948 17.172 135.788 17.6343C134.749 20.6277 134.279 21.9755 134.184 22.2295C134.125 22.3892 134.076 22.5537 134.076 22.5952C134.076 22.6428 134.922 22.6707 136.369 22.6707C137.63 22.6707 138.662 22.655 138.662 22.6358C138.662 22.6167 138.55 22.331 138.412 22.0007C138.275 21.6703 137.938 20.8458 137.664 20.1683C137.39 19.4908 137.073 18.7113 136.96 18.436Z" fill="#FF007A"/>
</svg>
